<svg width="28" height="41" viewBox="0 0 28 41" fill="none" xmlns="http://www.w3.org/2000/svg">
<path d="M19.5532 40.5999C18.6164 40.6014 17.6974 40.3439 16.8977 39.8559C16.098 39.368 15.4488 38.6685 15.0216 37.8347L9.73623 26.5033L3.74939 31.7312C3.50494 31.9448 3.20415 32.0835 2.88298 32.1307C2.56181 32.1779 2.23384 32.1316 1.93827 31.9974C1.6427 31.8632 1.39204 31.6466 1.21624 31.3737C1.04045 31.1008 0.946966 30.7831 0.94696 30.4585V5.07098C0.946914 4.09421 1.22898 3.13821 1.75926 2.31791C2.28953 1.49761 3.04544 0.847928 3.93611 0.446955C4.82679 0.0459823 5.81432 -0.0892106 6.77999 0.0576285C7.74566 0.204468 8.64836 0.627089 9.37959 1.27469L27.4652 18.5794C27.6999 18.8036 27.8651 19.0905 27.941 19.4061C28.017 19.7216 28.0005 20.0523 27.8936 20.3587C27.7866 20.6651 27.5937 20.9342 27.3379 21.1339C27.0821 21.3336 26.7743 21.4555 26.4511 21.4849L18.8991 22.1729L24.0797 33.2761C24.4625 34.048 24.6423 34.9046 24.6022 35.7653C24.5621 36.6259 24.3034 37.4622 23.8504 38.1951C23.3974 38.928 22.7652 39.5334 22.0133 39.9542C21.2614 40.3749 20.4148 40.5972 19.5532 40.5999Z" fill="white"/>
</svg>
