<svg width="14" height="22" viewBox="0 0 14 22" fill="none" xmlns="http://www.w3.org/2000/svg">
<path d="M9.63707 21.4999C9.15251 21.5007 8.67717 21.3675 8.26355 21.1151C7.84992 20.8627 7.5141 20.5009 7.29317 20.0696L4.55935 14.2086L1.46271 16.9127C1.33627 17.0231 1.18069 17.0949 1.01457 17.1193C0.848448 17.1437 0.678807 17.1198 0.525927 17.0503C0.373047 16.9809 0.243395 16.8689 0.152468 16.7278C0.0615413 16.5866 0.0131866 16.4223 0.0131836 16.2543V3.12291C0.0131597 2.61769 0.159057 2.12321 0.433336 1.69892C0.707614 1.27463 1.0986 0.938583 1.55929 0.731183C2.01999 0.523784 2.53078 0.453857 3.03026 0.529808C3.52974 0.605759 3.99666 0.824356 4.37488 1.15932L13.7295 10.11C13.8509 10.226 13.9363 10.3744 13.9756 10.5376C14.0149 10.7008 14.0064 10.8718 13.9511 11.0303C13.8957 11.1888 13.796 11.328 13.6637 11.4313C13.5314 11.5346 13.3721 11.5977 13.2049 11.6129L9.29873 11.9687L11.9783 17.7117C12.1764 18.111 12.2694 18.5541 12.2486 18.9993C12.2279 19.4444 12.0941 19.877 11.8598 20.2561C11.6255 20.6351 11.2984 20.9483 10.9095 21.1659C10.5207 21.3835 10.0827 21.4985 9.63707 21.4999Z" fill="white"/>
</svg>
