<svg width="37" height="35" viewBox="0 0 37 35" fill="none" xmlns="http://www.w3.org/2000/svg">
<path d="M0.550587 16.7391C0.594718 16.5976 0.6145 16.45 0.664718 16.31L4.77037 5.00804C5.30653 3.54154 6.27988 2.27494 7.55893 1.37933C8.83799 0.483718 10.3611 0.00226259 11.9225 0H24.7052C26.2668 0.00215928 27.7902 0.483752 29.0693 1.37968C30.3484 2.2756 31.3216 3.54266 31.8573 5.00957L35.966 16.31C36.0163 16.45 36.036 16.5976 36.0802 16.7391H0.550587ZM30.4878 19.7826V22.8261C30.4878 23.2297 30.3274 23.6167 30.0421 23.9021C29.7567 24.1875 29.3696 24.3478 28.966 24.3478C28.5624 24.3478 28.1754 24.1875 27.89 23.9021C27.6046 23.6167 27.4443 23.2297 27.4443 22.8261V19.7826H9.18342V22.8261C9.18342 23.2297 9.02309 23.6167 8.73771 23.9021C8.45233 24.1875 8.06527 24.3478 7.66168 24.3478C7.25809 24.3478 6.87103 24.1875 6.58564 23.9021C6.30026 23.6167 6.13994 23.2297 6.13994 22.8261V19.7826H0.0529785V22.8261C0.0549239 24.3049 0.487748 25.751 1.29852 26.9877C2.10929 28.2244 3.26288 29.1981 4.6182 29.7896V31.9565C4.6182 32.7637 4.93885 33.5378 5.50961 34.1086C6.08037 34.6794 6.8545 35 7.66168 35C8.46886 35 9.24298 34.6794 9.81374 34.1086C10.3845 33.5378 10.7052 32.7637 10.7052 31.9565V30.4348H25.9226V31.9565C25.9226 32.7637 26.2432 33.5378 26.814 34.1086C27.3847 34.6794 28.1588 35 28.966 35C29.7732 35 30.5473 34.6794 31.1181 34.1086C31.6889 33.5378 32.0095 32.7637 32.0095 31.9565V29.7896C33.3648 29.1981 34.5184 28.2244 35.3292 26.9877C36.14 25.751 36.5728 24.3049 36.5747 22.8261V19.7826H30.4878Z" fill="white"/>
</svg>
