<svg width="20" height="20" viewBox="0 0 20 20" fill="none" xmlns="http://www.w3.org/2000/svg">
<path d="M0.27013 9.58695C0.294087 9.51013 0.304826 9.42999 0.332087 9.354L2.56087 3.21865C2.85193 2.42255 3.38031 1.73496 4.07466 1.24878C4.769 0.762589 5.59584 0.501228 6.44347 0.5H13.3826C14.2304 0.501172 15.0573 0.762608 15.7517 1.24897C16.4461 1.73533 16.9744 2.42316 17.2652 3.21948L19.4956 9.354C19.5229 9.42999 19.5336 9.51013 19.5576 9.58695H0.27013ZM16.5217 11.2391V12.8913C16.5217 13.1104 16.4347 13.3205 16.2798 13.4754C16.1249 13.6304 15.9147 13.7174 15.6956 13.7174C15.4766 13.7174 15.2664 13.6304 15.1115 13.4754C14.9566 13.3205 14.8696 13.1104 14.8696 12.8913V11.2391H4.95652V12.8913C4.95652 13.1104 4.86948 13.3205 4.71456 13.4754C4.55964 13.6304 4.34952 13.7174 4.13043 13.7174C3.91134 13.7174 3.70122 13.6304 3.5463 13.4754C3.39138 13.3205 3.30435 13.1104 3.30435 12.8913V11.2391H0V12.8913C0.00105605 13.6941 0.236017 14.4791 0.676151 15.1505C1.11628 15.8218 1.74251 16.3504 2.47826 16.6715V17.8478C2.47826 18.286 2.65233 18.7062 2.96217 19.0161C3.27201 19.3259 3.69225 19.5 4.13043 19.5C4.56862 19.5 4.98885 19.3259 5.2987 19.0161C5.60854 18.7062 5.78261 18.286 5.78261 17.8478V17.0217H14.0435V17.8478C14.0435 18.286 14.2175 18.7062 14.5274 19.0161C14.8372 19.3259 15.2575 19.5 15.6956 19.5C16.1338 19.5 16.5541 19.3259 16.8639 19.0161C17.1737 18.7062 17.3478 18.286 17.3478 17.8478V16.6715C18.0836 16.3504 18.7098 15.8218 19.1499 15.1505C19.5901 14.4791 19.825 13.6941 19.8261 12.8913V11.2391H16.5217Z" fill="white"/>
</svg>
