<svg width="45" height="40" viewBox="0 0 45 40" fill="none" xmlns="http://www.w3.org/2000/svg">
<path d="M32.3154 0.620605C30.2545 0.652661 28.2385 1.22797 26.4711 2.28842C24.7037 3.34888 23.2474 4.85694 22.2492 6.6603C21.2511 4.85694 19.7948 3.34888 18.0274 2.28842C16.2599 1.22797 14.244 0.652661 12.1831 0.620605C8.89773 0.763345 5.80241 2.20054 3.57335 4.61821C1.3443 7.03588 0.162694 10.2375 0.286692 13.5236C0.286692 21.8456 9.04608 30.9344 16.3925 37.0967C18.0328 38.4751 20.1067 39.2308 22.2492 39.2308C24.3918 39.2308 26.4656 38.4751 28.1059 37.0967C35.4524 30.9344 44.2118 21.8456 44.2118 13.5236C44.3358 10.2375 43.1542 7.03588 40.9251 4.61821C38.696 2.20054 35.6007 0.763345 32.3154 0.620605Z" fill="#FF2C2C"/>
</svg>
