<svg width="21" height="22" viewBox="0 0 21 22" fill="none" xmlns="http://www.w3.org/2000/svg">
<path d="M11.6708 0.954796C11.3494 0.662009 10.9324 0.5 10.5 0.5C10.0676 0.5 9.6506 0.662009 9.32925 0.954796L0 9.45418V18.6657C0 19.4174 0.294999 20.1383 0.820101 20.6698C1.3452 21.2014 2.05739 21.5 2.8 21.5H6.125V15.2743C6.125 14.0997 6.58594 12.9733 7.40641 12.1428C8.22688 11.3122 9.33968 10.8457 10.5 10.8457C11.6603 10.8457 12.7731 11.3122 13.5936 12.1428C14.4141 12.9733 14.875 14.0997 14.875 15.2743V21.4973H18.2C18.9426 21.4973 19.6548 21.1987 20.1799 20.6672C20.705 20.1357 21 19.4147 21 18.663V9.45153L11.6708 0.954796Z" fill="white"/>
</svg>
