<svg width="42" height="41" viewBox="0 0 42 41" fill="none" xmlns="http://www.w3.org/2000/svg">
<path d="M23.7737 0.887935C23.1463 0.316303 22.3321 0 21.488 0C20.6439 0 19.8296 0.316303 19.2022 0.887935L0.987976 17.482V35.4664C0.987976 36.934 1.56393 38.3415 2.58913 39.3792C3.61432 40.417 5.00479 41 6.45464 41H12.9463V28.845C12.9463 26.5518 13.8462 24.3526 15.4481 22.7311C17.05 21.1096 19.2226 20.1987 21.488 20.1987C23.7534 20.1987 25.926 21.1096 27.5278 22.7311C29.1297 24.3526 30.0296 26.5518 30.0296 28.845V40.9948H36.5213C37.9712 40.9948 39.3616 40.4118 40.3868 39.374C41.412 38.3363 41.988 36.9288 41.988 35.4612V17.4768L23.7737 0.887935Z" fill="white"/>
</svg>
