<svg width="36" height="35" viewBox="0 0 36 35" fill="none" xmlns="http://www.w3.org/2000/svg">
<path d="M1.14416 16.7562C1.18673 16.6196 1.20582 16.4772 1.25427 16.3422L5.21542 5.43798C5.73271 4.0231 6.6718 2.80107 7.90584 1.93698C9.13987 1.07289 10.6094 0.608384 12.1159 0.606201H24.4486C25.9553 0.608284 27.425 1.07293 28.6591 1.93732C29.8932 2.80171 30.8322 4.02417 31.349 5.43945L35.3131 16.3422C35.3616 16.4772 35.3807 16.6196 35.4232 16.7562H1.14416ZM30.0277 19.6925V22.6289C30.0277 23.0183 29.873 23.3917 29.5976 23.6671C29.3223 23.9424 28.9489 24.0971 28.5595 24.0971C28.1701 24.0971 27.7967 23.9424 27.5213 23.6671C27.246 23.3917 27.0913 23.0183 27.0913 22.6289V19.6925H9.47314V22.6289C9.47314 23.0183 9.31846 23.3917 9.04312 23.6671C8.76779 23.9424 8.39435 24.0971 8.00496 24.0971C7.61558 24.0971 7.24214 23.9424 6.9668 23.6671C6.69147 23.3917 6.53678 23.0183 6.53678 22.6289V19.6925H0.664062V22.6289C0.665939 24.0556 1.08353 25.4509 1.86577 26.6441C2.648 27.8372 3.76098 28.7766 5.0686 29.3473V31.438C5.0686 32.2168 5.37797 32.9636 5.92864 33.5143C6.47932 34.065 7.22619 34.3743 8.00496 34.3743C8.78374 34.3743 9.53061 34.065 10.0813 33.5143C10.632 32.9636 10.9413 32.2168 10.9413 31.438V29.9698H25.6231V31.438C25.6231 32.2168 25.9325 32.9636 26.4832 33.5143C27.0338 34.065 27.7807 34.3743 28.5595 34.3743C29.3383 34.3743 30.0851 34.065 30.6358 33.5143C31.1865 32.9636 31.4958 32.2168 31.4958 31.438V29.3473C32.8035 28.7766 33.9165 27.8372 34.6987 26.6441C35.4809 25.4509 35.8985 24.0556 35.9004 22.6289V19.6925H30.0277Z" fill="#6C2CFF"/>
</svg>
