<svg width="23" height="24" viewBox="0 0 23 24" fill="none" xmlns="http://www.w3.org/2000/svg">
<g clip-path="url(#clip0_11_5977)">
<path d="M13.4167 7C13.4167 5.14349 12.7099 3.36301 11.4518 2.05025C10.1938 0.737498 8.48749 0 6.70833 0C4.92917 0 3.22288 0.737498 1.96483 2.05025C0.706769 3.36301 0 5.14349 0 7C0 10.971 2.16296 15.485 5.16542 16.685C4.95767 17.046 4.82997 17.4509 4.79167 17.87C4.79167 19.441 6.21863 20.137 7.26033 20.646C7.83533 20.926 8.625 21.311 8.625 21.609C8.54693 21.9195 8.40719 22.2095 8.21483 22.46C8.14687 22.5706 8.10045 22.694 8.07822 22.8233C8.05598 22.9526 8.05837 23.0852 8.08525 23.2135C8.11212 23.3419 8.16296 23.4634 8.23485 23.5713C8.30674 23.6791 8.39828 23.7711 8.50425 23.842C8.71826 23.9852 8.97802 24.0339 9.2264 23.9772C9.34938 23.9492 9.46587 23.8961 9.56921 23.8211C9.67254 23.7461 9.76071 23.6506 9.82867 23.54C10.2354 22.979 10.4825 22.3098 10.5417 21.609C10.5417 20.038 9.11471 19.342 8.073 18.834C7.498 18.553 6.70833 18.168 6.69971 17.969C6.8454 17.6108 7.02791 17.2701 7.24404 16.953C10.7592 16.475 13.4167 11.4 13.4167 7ZM8.79367 10.47C9.23527 9.72092 9.50549 8.87571 9.58333 8C9.58333 7.73478 9.6843 7.48043 9.86402 7.29289C10.0437 7.10536 10.2875 7 10.5417 7C10.7958 7 11.0396 7.10536 11.2193 7.29289C11.399 7.48043 11.5 7.73478 11.5 8C11.4216 9.25133 11.0501 10.4635 10.418 11.53C10.3513 11.6416 10.2642 11.7384 10.1617 11.8149C10.0591 11.8914 9.94311 11.9461 9.82031 11.9758C9.6975 12.0055 9.57029 12.0097 9.44593 11.9881C9.32158 11.9665 9.20252 11.9196 9.09554 11.85C8.98857 11.7804 8.89578 11.6895 8.82248 11.5825C8.74917 11.4755 8.69679 11.3544 8.66831 11.2263C8.63983 11.0981 8.63582 10.9654 8.65651 10.8356C8.6772 10.7059 8.72217 10.5816 8.78888 10.47H8.79367ZM18.6875 18.589C18.0339 18.227 17.3593 17.852 17.2653 17.427C17.2213 17.234 17.2414 16.799 17.7589 15.954C20.7958 15.5 23 11.025 23 7C23.0268 6.20454 22.8964 5.41185 22.6169 4.67126C22.3374 3.93067 21.9148 3.25803 21.3754 2.69521C20.8361 2.13239 20.1914 1.69143 19.4817 1.39979C18.772 1.10815 18.0123 0.972063 17.25 1C16.0572 0.983245 14.8877 1.34449 13.8958 2.036C14.8344 3.50618 15.3346 5.23349 15.3333 7C15.2863 9.37959 14.7005 11.7138 13.6237 13.812C14.1715 14.5962 14.8955 15.228 15.732 15.652C15.3782 16.3328 15.2592 17.1196 15.3947 17.881C15.6879 19.191 16.8504 19.836 17.7848 20.355C18.3751 20.683 19.043 21.055 19.1446 21.423C19.1698 21.8083 19.0628 22.1904 18.8428 22.501C18.7788 22.6148 18.7371 22.7406 18.72 22.8713C18.7029 23.0019 18.7107 23.1348 18.743 23.2623C18.7753 23.3898 18.8314 23.5094 18.9082 23.6142C18.985 23.7189 19.0809 23.8068 19.1903 23.8728C19.2998 23.9387 19.4206 23.9814 19.546 23.9984C19.6713 24.0154 19.7986 24.0064 19.9206 23.9718C20.0426 23.9373 20.1568 23.8779 20.2567 23.7971C20.3565 23.7163 20.4401 23.6156 20.5026 23.501C20.7531 23.1219 20.9256 22.6927 21.0091 22.2406C21.0925 21.7884 21.0852 21.3231 20.9875 20.874C20.7743 20.3492 20.4602 19.8756 20.0646 19.4826C19.669 19.0896 19.2003 18.7854 18.6875 18.589ZM18.376 10.47C18.818 9.72101 19.0885 8.87579 19.1667 8C19.1667 7.73478 19.2676 7.48043 19.4474 7.29289C19.6271 7.10536 19.8708 7 20.125 7C20.3792 7 20.6229 7.10536 20.8026 7.29289C20.9824 7.48043 21.0833 7.73478 21.0833 8C21.0049 9.25133 20.6334 10.4635 20.0014 11.53C19.8667 11.7554 19.6517 11.9158 19.4036 11.9758C19.1556 12.0358 18.8949 11.9906 18.6789 11.85C18.4628 11.7094 18.3092 11.4851 18.2516 11.2263C18.1941 10.9675 18.2375 10.6954 18.3722 10.47H18.376Z" fill="#6C2CFF"/>
</g>
<defs>
<clipPath id="clip0_11_5977">
<rect width="23" height="24" fill="white"/>
</clipPath>
</defs>
</svg>
