<svg width="39" height="39" viewBox="0 0 39 39" fill="none" xmlns="http://www.w3.org/2000/svg">
<g clip-path="url(#clip0_3_4975)">
<path d="M22.8307 11.7193C22.8307 8.77984 21.663 5.96075 19.5845 3.88222C17.506 1.80369 14.6869 0.635986 11.7474 0.635986C8.80791 0.635986 5.98882 1.80369 3.9103 3.88222C1.83177 5.96075 0.664063 8.77984 0.664062 11.7193C0.664063 18.0067 4.23765 25.1539 9.19823 27.0539C8.855 27.6254 8.64401 28.2665 8.58073 28.9302C8.58073 31.4176 10.9383 32.5196 12.6594 33.3255C13.6094 33.7688 14.9141 34.3784 14.9141 34.8502C14.7851 35.3419 14.5542 35.801 14.2364 36.1977C14.1241 36.3727 14.0474 36.5682 14.0107 36.7729C13.9739 36.9776 13.9779 37.1876 14.0223 37.3908C14.0667 37.594 14.1507 37.7864 14.2695 37.9571C14.3882 38.1279 14.5395 38.2735 14.7146 38.3858C15.0681 38.6126 15.4973 38.6896 15.9077 38.5999C16.1109 38.5555 16.3033 38.4715 16.4741 38.3528C16.6448 38.234 16.7904 38.0827 16.9027 37.9077C17.5748 37.0194 17.983 35.9598 18.0807 34.8502C18.0807 32.3628 15.7231 31.2608 14.0021 30.4565C13.0521 30.0116 11.7474 29.402 11.7331 29.0869C11.9739 28.5197 12.2754 27.9804 12.6325 27.4782C18.4401 26.7214 22.8307 18.686 22.8307 11.7193ZM15.1927 17.2135C15.9223 16.0274 16.3688 14.6892 16.4974 13.3027C16.4974 12.8827 16.6642 12.48 16.9611 12.1831C17.2581 11.8861 17.6608 11.7193 18.0807 11.7193C18.5007 11.7193 18.9034 11.8861 19.2003 12.1831C19.4972 12.48 19.6641 12.8827 19.6641 13.3027C19.5346 15.2839 18.9207 17.2031 17.8765 18.8918C17.7663 19.0686 17.6223 19.2219 17.4529 19.343C17.2835 19.4641 17.0918 19.5506 16.8889 19.5977C16.686 19.6447 16.4758 19.6514 16.2704 19.6172C16.0649 19.583 15.8682 19.5087 15.6915 19.3985C15.5147 19.2883 15.3614 19.1444 15.2403 18.9749C15.1192 18.8055 15.0327 18.6138 14.9856 18.4109C14.9386 18.208 14.9319 17.9979 14.9661 17.7924C15.0003 17.5869 15.0746 17.3902 15.1848 17.2135H15.1927ZM31.5391 30.0686C30.4592 29.4954 29.3446 28.9017 29.1894 28.2287C29.1166 27.9232 29.1498 27.2344 30.0048 25.8965C35.0224 25.1777 38.6641 18.0922 38.6641 11.7193C38.7083 10.4598 38.4928 9.20475 38.0311 8.03214C37.5693 6.85954 36.8711 5.79453 35.98 4.9034C35.0889 4.01227 34.0238 3.31409 32.8512 2.85232C31.6786 2.39056 30.4235 2.17509 29.1641 2.21932C27.1934 2.19279 25.2611 2.76476 23.6224 3.85965C25.173 6.18744 25.9995 8.92235 25.9974 11.7193C25.9197 15.487 24.9518 19.1829 23.1727 22.505C24.0779 23.7466 25.274 24.747 26.6561 25.4183C26.0716 26.4962 25.8748 27.742 26.0987 28.9476C26.5832 31.0217 28.5038 32.043 30.0476 32.8647C31.0229 33.3841 32.1265 33.9731 32.2943 34.5557C32.3359 35.1658 32.1591 35.7709 31.7956 36.2626C31.69 36.4427 31.621 36.642 31.5927 36.8488C31.5645 37.0557 31.5774 37.2662 31.6307 37.468C31.6841 37.6699 31.7769 37.8592 31.9037 38.0251C32.0306 38.191 32.189 38.3301 32.3698 38.4345C32.5506 38.5389 32.7503 38.6065 32.9574 38.6335C33.1645 38.6604 33.3748 38.6461 33.5763 38.5914C33.7778 38.5366 33.9665 38.4426 34.1316 38.3147C34.2966 38.1867 34.4347 38.0274 34.5379 37.8459C34.9519 37.2457 35.2368 36.5662 35.3747 35.8502C35.5126 35.1343 35.5005 34.3975 35.3391 33.6865C34.9869 32.8556 34.4679 32.1057 33.8143 31.4834C33.1606 30.8611 32.3863 30.3796 31.5391 30.0686ZM31.0245 17.2135C31.7546 16.0276 32.2016 14.6893 32.3307 13.3027C32.3307 12.8827 32.4975 12.48 32.7945 12.1831C33.0914 11.8861 33.4941 11.7193 33.9141 11.7193C34.334 11.7193 34.7367 11.8861 35.0336 12.1831C35.3306 12.48 35.4974 12.8827 35.4974 13.3027C35.3679 15.2839 34.7541 17.2031 33.7098 18.8918C33.4873 19.2488 33.132 19.5027 32.7222 19.5977C32.3125 19.6927 31.8818 19.621 31.5248 19.3985C31.1679 19.1759 30.914 18.8207 30.819 18.4109C30.7239 18.0012 30.7956 17.5704 31.0181 17.2135H31.0245Z" fill="#6C2CFF"/>
</g>
<defs>
<clipPath id="clip0_3_4975">
<rect width="38" height="38" fill="white" transform="translate(0.664062 0.635986)"/>
</clipPath>
</defs>
</svg>
