<svg width="47" height="47" viewBox="0 0 47 47" fill="none" xmlns="http://www.w3.org/2000/svg">
<g clip-path="url(#clip0_3_4969)">
<path d="M45.9909 10.9272L36.4076 1.34382C36.0461 0.994681 35.5619 0.801492 35.0594 0.805859C34.5568 0.810226 34.0761 1.0118 33.7207 1.36716C33.3654 1.72253 33.1638 2.20325 33.1594 2.7058C33.1551 3.20834 33.3483 3.6925 33.6974 4.05398L37.134 7.49057L32.3902 12.2343C30.8782 11.1323 29.0767 10.4969 27.2079 10.4067C25.339 10.3164 23.4847 10.7752 21.8735 11.7264L26.8242 16.6772C27.0073 16.854 27.1533 17.0655 27.2538 17.2993C27.3542 17.5331 27.4071 17.7846 27.4093 18.0391C27.4115 18.2936 27.363 18.546 27.2666 18.7816C27.1703 19.0171 27.028 19.2311 26.848 19.4111C26.668 19.591 26.454 19.7334 26.2185 19.8297C25.9829 19.9261 25.7305 19.9746 25.476 19.9724C25.2216 19.9702 24.97 19.9173 24.7362 19.8168C24.5024 19.7164 24.2909 19.5704 24.1141 19.3873L18.9256 14.1989L15.8858 17.2387L21.0742 22.4272C21.2573 22.604 21.4033 22.8155 21.5038 23.0493C21.6042 23.2831 21.6571 23.5346 21.6593 23.7891C21.6615 24.0436 21.613 24.296 21.5166 24.5316C21.4203 24.7671 21.278 24.9811 21.098 25.1611C20.918 25.341 20.704 25.4834 20.4685 25.5797C20.2329 25.6761 19.9805 25.7246 19.726 25.7224C19.4716 25.7202 19.22 25.6673 18.9862 25.5668C18.7524 25.4664 18.5409 25.3204 18.3641 25.1373L13.1756 19.9489L10.1358 22.9926L15.3204 28.1772C15.5035 28.354 15.6495 28.5655 15.7499 28.7993C15.8504 29.0331 15.9033 29.2846 15.9055 29.5391C15.9077 29.7936 15.8592 30.046 15.7628 30.2816C15.6664 30.5171 15.5241 30.7311 15.3442 30.9111C15.1642 31.091 14.9502 31.2334 14.7146 31.3297C14.4791 31.4261 14.2267 31.4746 13.9722 31.4724C13.7177 31.4702 13.4662 31.4173 13.2324 31.3168C12.9985 31.2164 12.787 31.0704 12.6102 30.8873L7.84732 26.1206C6.82879 28.049 6.29838 30.1976 6.30248 32.3785V38.3201L1.11407 43.5105C0.931005 43.6873 0.784989 43.8988 0.684539 44.1326C0.584088 44.3665 0.531215 44.618 0.529003 44.8725C0.526792 45.127 0.575286 45.3793 0.671658 45.6149C0.76803 45.8504 0.910348 46.0644 1.09031 46.2444C1.27027 46.4244 1.48427 46.5667 1.71982 46.6631C1.95537 46.7594 2.20776 46.8079 2.46225 46.8057C2.71675 46.8035 2.96825 46.7506 3.20209 46.6502C3.43593 46.5497 3.64743 46.4037 3.82423 46.2206L9.01265 41.0322H14.9543C16.7167 41.0369 18.4624 40.6921 20.0906 40.0177C21.7188 39.3432 23.1971 38.3526 24.4399 37.1031L34.1612 27.3817C35.771 25.7626 36.7489 23.6213 36.9183 21.3444C37.0877 19.0675 36.4375 16.8051 35.0851 14.9656L39.8442 10.2007L43.2807 13.6373C43.6422 13.9865 44.1264 14.1796 44.6289 14.1753C45.1315 14.1709 45.6122 13.9693 45.9676 13.614C46.3229 13.2586 46.5245 12.7779 46.5289 12.2753C46.5332 11.7728 46.34 11.2886 45.9909 10.9272Z" fill="#6C2CFF"/>
</g>
<defs>
<clipPath id="clip0_3_4969">
<rect width="46" height="46" fill="white" transform="translate(0.552368 0.781494)"/>
</clipPath>
</defs>
</svg>
