<svg width="40" height="40" viewBox="0 0 40 40" fill="none" xmlns="http://www.w3.org/2000/svg">
<g clip-path="url(#clip0_3_4966)">
<path d="M8.78918 23.0315C9.68664 23.0315 10.4142 22.304 10.4142 21.4065C10.4142 20.509 9.68664 19.7815 8.78918 19.7815C7.89172 19.7815 7.16418 20.509 7.16418 21.4065C7.16418 22.304 7.89172 23.0315 8.78918 23.0315Z" fill="#6C2CFF"/>
<path d="M2.28906 16.5317C3.18653 16.5317 3.91406 15.8042 3.91406 14.9067C3.91406 14.0093 3.18653 13.2817 2.28906 13.2817C1.3916 13.2817 0.664062 14.0093 0.664062 14.9067C0.664062 15.8042 1.3916 16.5317 2.28906 16.5317Z" fill="#6C2CFF"/>
<path d="M8.78918 10.0312C9.68664 10.0312 10.4142 9.30371 10.4142 8.40625C10.4142 7.50879 9.68664 6.78125 8.78918 6.78125C7.89172 6.78125 7.16418 7.50879 7.16418 8.40625C7.16418 9.30371 7.89172 10.0312 8.78918 10.0312Z" fill="#6C2CFF"/>
<path d="M2.28906 3.53149C3.18653 3.53149 3.91406 2.80396 3.91406 1.90649C3.91406 1.00903 3.18653 0.281494 2.28906 0.281494C1.3916 0.281494 0.664062 1.00903 0.664062 1.90649C0.664062 2.80396 1.3916 3.53149 2.28906 3.53149Z" fill="#6C2CFF"/>
<path d="M38.0392 23.0315C38.9367 23.0315 39.6642 22.304 39.6642 21.4065C39.6642 20.509 38.9367 19.7815 38.0392 19.7815C37.1418 19.7815 36.4142 20.509 36.4142 21.4065C36.4142 22.304 37.1418 23.0315 38.0392 23.0315Z" fill="#6C2CFF"/>
<path d="M31.5391 16.5317C32.4365 16.5317 33.1641 15.8042 33.1641 14.9067C33.1641 14.0093 32.4365 13.2817 31.5391 13.2817C30.6416 13.2817 29.9141 14.0093 29.9141 14.9067C29.9141 15.8042 30.6416 16.5317 31.5391 16.5317Z" fill="#6C2CFF"/>
<path d="M38.0392 10.0312C38.9367 10.0312 39.6642 9.30371 39.6642 8.40625C39.6642 7.50879 38.9367 6.78125 38.0392 6.78125C37.1418 6.78125 36.4142 7.50879 36.4142 8.40625C36.4142 9.30371 37.1418 10.0312 38.0392 10.0312Z" fill="#6C2CFF"/>
<path d="M31.5391 3.53149C32.4365 3.53149 33.1641 2.80396 33.1641 1.90649C33.1641 1.00903 32.4365 0.281494 31.5391 0.281494C30.6416 0.281494 29.9141 1.00903 29.9141 1.90649C29.9141 2.80396 30.6416 3.53149 31.5391 3.53149Z" fill="#6C2CFF"/>
<path d="M23.4142 39.2812C24.3117 39.2812 25.0392 38.5537 25.0392 37.6562C25.0392 36.7588 24.3117 36.0312 23.4142 36.0312C22.5168 36.0312 21.7892 36.7588 21.7892 37.6562C21.7892 38.5537 22.5168 39.2812 23.4142 39.2812Z" fill="#6C2CFF"/>
<path d="M16.9141 32.7815C17.8115 32.7815 18.5391 32.054 18.5391 31.1565C18.5391 30.259 17.8115 29.5315 16.9141 29.5315C16.0166 29.5315 15.2891 30.259 15.2891 31.1565C15.2891 32.054 16.0166 32.7815 16.9141 32.7815Z" fill="#6C2CFF"/>
<path d="M23.4142 26.2818C24.3117 26.2818 25.0392 25.5542 25.0392 24.6567C25.0392 23.7593 24.3117 23.0317 23.4142 23.0317C22.5168 23.0317 21.7892 23.7593 21.7892 24.6567C21.7892 25.5542 22.5168 26.2818 23.4142 26.2818Z" fill="#6C2CFF"/>
<path d="M16.9141 19.7813C17.8115 19.7813 18.5391 19.0537 18.5391 18.1563C18.5391 17.2588 17.8115 16.5312 16.9141 16.5312C16.0166 16.5312 15.2891 17.2588 15.2891 18.1563C15.2891 19.0537 16.0166 19.7813 16.9141 19.7813Z" fill="#6C2CFF"/>
<path d="M25.0389 5.15649C24.1769 5.15649 23.3503 4.81408 22.7408 4.20459C22.1313 3.5951 21.7889 2.76845 21.7889 1.90649C21.7889 1.47552 21.6177 1.06219 21.3129 0.757446C21.0082 0.452699 20.5949 0.281494 20.1639 0.281494C19.7329 0.281494 19.3196 0.452699 19.0149 0.757446C18.7101 1.06219 18.5389 1.47552 18.5389 1.90649C18.5389 2.76845 18.1965 3.5951 17.587 4.20459C16.9775 4.81408 16.1509 5.15649 15.2889 5.15649C14.8579 5.15649 14.4446 5.3277 14.1399 5.63245C13.8351 5.93719 13.6639 6.35052 13.6639 6.78149C13.6639 7.21247 13.8351 7.6258 14.1399 7.93054C14.4446 8.23529 14.8579 8.40649 15.2889 8.40649C16.1509 8.40649 16.9775 8.7489 17.587 9.3584C18.1965 9.96789 18.5389 10.7945 18.5389 11.6565C18.5389 12.0875 18.7101 12.5008 19.0149 12.8055C19.3196 13.1103 19.7329 13.2815 20.1639 13.2815C20.5949 13.2815 21.0082 13.1103 21.3129 12.8055C21.6177 12.5008 21.7889 12.0875 21.7889 11.6565C21.7889 10.7945 22.1313 9.96789 22.7408 9.3584C23.3503 8.7489 24.1769 8.40649 25.0389 8.40649C25.4699 8.40649 25.8832 8.23529 26.1879 7.93054C26.4927 7.6258 26.6639 7.21247 26.6639 6.78149C26.6639 6.35052 26.4927 5.93719 26.1879 5.63245C25.8832 5.3277 25.4699 5.15649 25.0389 5.15649Z" fill="#6C2CFF"/>
<path d="M12.0391 31.1562C11.1771 31.1562 10.3505 30.8138 9.74096 30.2043C9.13147 29.5948 8.78906 28.7682 8.78906 27.9062C8.78906 27.4753 8.61786 27.0619 8.31311 26.7572C8.00836 26.4525 7.59504 26.2812 7.16406 26.2812C6.73309 26.2812 6.31976 26.4525 6.01501 26.7572C5.71027 27.0619 5.53906 27.4753 5.53906 27.9062C5.53906 28.7682 5.19665 29.5948 4.58716 30.2043C3.97767 30.8138 3.15102 31.1562 2.28906 31.1562C1.85809 31.1562 1.44476 31.3274 1.14001 31.6322C0.835267 31.9369 0.664063 32.3503 0.664062 32.7812C0.664063 33.2122 0.835267 33.6255 1.14001 33.9303C1.44476 34.235 1.85809 34.4062 2.28906 34.4062C3.15102 34.4062 3.97767 34.7486 4.58716 35.3581C5.19665 35.9676 5.53906 36.7943 5.53906 37.6562C5.53906 38.0872 5.71027 38.5005 6.01501 38.8053C6.31976 39.11 6.73309 39.2812 7.16406 39.2812C7.59504 39.2812 8.00836 39.11 8.31311 38.8053C8.61786 38.5005 8.78906 38.0872 8.78906 37.6562C8.78906 36.7943 9.13147 35.9676 9.74096 35.3581C10.3505 34.7486 11.1771 34.4062 12.0391 34.4062C12.47 34.4062 12.8834 34.235 13.1881 33.9303C13.4929 33.6255 13.6641 33.2122 13.6641 32.7812C13.6641 32.3503 13.4929 31.9369 13.1881 31.6322C12.8834 31.3274 12.47 31.1562 12.0391 31.1562Z" fill="#6C2CFF"/>
<path d="M38.0392 31.1562C37.1772 31.1562 36.3506 30.8138 35.7411 30.2043C35.1316 29.5948 34.7892 28.7682 34.7892 27.9062C34.7892 27.4753 34.618 27.0619 34.3133 26.7572C34.0085 26.4525 33.5952 26.2812 33.1642 26.2812C32.7332 26.2812 32.3199 26.4525 32.0152 26.7572C31.7104 27.0619 31.5392 27.4753 31.5392 27.9062C31.5392 28.7682 31.1968 29.5948 30.5873 30.2043C29.9778 30.8138 29.1512 31.1562 28.2892 31.1562C27.8582 31.1562 27.4449 31.3274 27.1402 31.6322C26.8354 31.9369 26.6642 32.3503 26.6642 32.7812C26.6642 33.2122 26.8354 33.6255 27.1402 33.9303C27.4449 34.235 27.8582 34.4062 28.2892 34.4062C29.1512 34.4062 29.9778 34.7486 30.5873 35.3581C31.1968 35.9676 31.5392 36.7943 31.5392 37.6562C31.5392 38.0872 31.7104 38.5005 32.0152 38.8053C32.3199 39.11 32.7332 39.2812 33.1642 39.2812C33.5952 39.2812 34.0085 39.11 34.3133 38.8053C34.618 38.5005 34.7892 38.0872 34.7892 37.6562C34.7892 36.7943 35.1316 35.9676 35.7411 35.3581C36.3506 34.7486 37.1772 34.4062 38.0392 34.4062C38.4702 34.4062 38.8835 34.235 39.1882 33.9303C39.493 33.6255 39.6642 33.2122 39.6642 32.7812C39.6642 32.3503 39.493 31.9369 39.1882 31.6322C38.8835 31.3274 38.4702 31.1562 38.0392 31.1562Z" fill="#6C2CFF"/>
</g>
<defs>
<clipPath id="clip0_3_4966">
<rect width="39" height="39" fill="white" transform="translate(0.664062 0.281494)"/>
</clipPath>
</defs>
</svg>
