<svg width="26" height="26" viewBox="0 0 26 26" fill="none" xmlns="http://www.w3.org/2000/svg">
<g clip-path="url(#clip0_11_5984)">
<path d="M24.8719 11.9167H20.6219C20.5408 11.3198 20.3907 10.7353 20.175 10.1757L23.849 7.96142C23.9718 7.8927 24.08 7.79904 24.1674 7.68599C24.2547 7.57295 24.3193 7.44281 24.3574 7.30331C24.3955 7.16381 24.4063 7.01777 24.3891 6.87386C24.3719 6.72996 24.3271 6.5911 24.2573 6.46553C24.1876 6.33997 24.0943 6.23024 23.983 6.14286C23.8717 6.05548 23.7447 5.99223 23.6095 5.95685C23.4743 5.92147 23.3336 5.91469 23.1958 5.9369C23.058 5.95911 22.9259 6.00987 22.8073 6.08617L19.1302 8.30375C18.7787 7.84194 18.3771 7.42389 17.9334 7.05792L20.0646 3.23267C20.193 2.98464 20.2234 2.69438 20.1494 2.42343C20.0754 2.15248 19.9029 1.92214 19.6684 1.78124C19.4339 1.64035 19.1558 1.59998 18.8932 1.66869C18.6306 1.73741 18.404 1.90981 18.2615 2.14933L16.1292 5.96808C15.5913 5.74354 15.0292 5.58748 14.4552 5.50333V1.08333C14.4552 0.796016 14.3455 0.520465 14.1501 0.317301C13.9548 0.114137 13.6898 0 13.4136 0C13.1373 0 12.8724 0.114137 12.677 0.317301C12.4817 0.520465 12.3719 0.796016 12.3719 1.08333V5.50333C11.7979 5.58748 11.2359 5.74354 10.6979 5.96808L8.56878 2.14717C8.4263 1.90764 8.19971 1.73524 7.93707 1.66653C7.67442 1.59781 7.39637 1.63818 7.16187 1.77908C6.92736 1.91997 6.75483 2.15031 6.68087 2.42126C6.60691 2.69221 6.63732 2.98247 6.76566 3.2305L8.89691 7.05792C8.45317 7.42389 8.05155 7.84194 7.70003 8.30375L4.02295 6.08617C3.90437 6.00987 3.77227 5.95911 3.63447 5.9369C3.49668 5.91469 3.356 5.92147 3.22078 5.95685C3.08555 5.99223 2.95854 6.05548 2.84725 6.14286C2.73597 6.23024 2.64269 6.33997 2.57294 6.46553C2.50319 6.5911 2.45839 6.72996 2.44119 6.87386C2.424 7.01777 2.43476 7.16381 2.47284 7.30331C2.51093 7.44281 2.57555 7.57295 2.66289 7.68599C2.75022 7.79904 2.85849 7.8927 2.98128 7.96142L6.65212 10.1757C6.43644 10.7353 6.2864 11.3198 6.20524 11.9167H1.95524C1.67897 11.9167 1.41402 12.0308 1.21867 12.234C1.02332 12.4371 0.913574 12.7127 0.913574 13C0.913574 13.2873 1.02332 13.5629 1.21867 13.766C1.41402 13.9692 1.67897 14.0833 1.95524 14.0833H6.20524C6.2864 14.6802 6.43644 15.2647 6.65212 15.8243L2.97816 18.0386C2.85537 18.1073 2.7471 18.201 2.65976 18.314C2.57242 18.4271 2.5078 18.5572 2.46972 18.6967C2.43164 18.8362 2.42087 18.9822 2.43807 19.1261C2.45526 19.27 2.50006 19.4089 2.56981 19.5345C2.63956 19.66 2.73285 19.7698 2.84413 19.8571C2.95541 19.9445 3.08243 20.0078 3.21765 20.0432C3.35288 20.0785 3.49356 20.0853 3.63135 20.0631C3.76914 20.0409 3.90124 19.9901 4.01982 19.9138L7.69691 17.6962C8.04842 18.1581 8.45004 18.5761 8.89378 18.9421L6.76566 22.7673C6.63732 23.0154 6.60691 23.3056 6.68087 23.5766C6.75483 23.8475 6.92736 24.0779 7.16187 24.2188C7.39637 24.3597 7.67442 24.4 7.93707 24.3313C8.19971 24.2626 8.4263 24.0902 8.56878 23.8507L10.6979 20.0298C11.2359 20.2546 11.798 20.4113 12.3719 20.4967V24.9167C12.3719 25.204 12.4817 25.4795 12.677 25.6827C12.8724 25.8859 13.1373 26 13.4136 26C13.6898 26 13.9548 25.8859 14.1501 25.6827C14.3455 25.4795 14.4552 25.204 14.4552 24.9167V20.4967C15.0291 20.412 15.5911 20.256 16.1292 20.0319L18.2584 23.8528C18.4009 24.0924 18.6274 24.2648 18.8901 24.3335C19.1527 24.4022 19.4308 24.3618 19.6653 24.2209C19.8998 24.08 20.0723 23.8497 20.1463 23.5787C20.2202 23.3078 20.1898 23.0175 20.0615 22.7695L17.9302 18.9443C18.374 18.5783 18.7756 18.1602 19.1271 17.6984L22.8042 19.916C22.9228 19.9923 23.0549 20.0431 23.1927 20.0653C23.3305 20.0875 23.4711 20.0807 23.6064 20.0453C23.7416 20.0099 23.8686 19.9467 23.9799 19.8593C24.0912 19.7719 24.1845 19.6622 24.2542 19.5366C24.324 19.4111 24.3688 19.2722 24.386 19.1283C24.4031 18.9844 24.3924 18.8384 24.3543 18.6989C24.3162 18.5594 24.2516 18.4292 24.1643 18.3162C24.0769 18.2031 23.9687 18.1095 23.8459 18.0408L20.1719 15.8264C20.3888 15.2663 20.5399 14.6811 20.6219 14.0833H24.8719C25.1482 14.0833 25.4131 13.9692 25.6085 13.766C25.8038 13.5629 25.9136 13.2873 25.9136 13C25.9136 12.7127 25.8038 12.4371 25.6085 12.234C25.4131 12.0308 25.1482 11.9167 24.8719 11.9167Z" fill="#6C2CFF"/>
</g>
<defs>
<clipPath id="clip0_11_5984">
<rect width="25" height="26" fill="white" transform="translate(0.913574)"/>
</clipPath>
</defs>
</svg>
