<svg width="25" height="26" viewBox="0 0 25 26" fill="none" xmlns="http://www.w3.org/2000/svg">
<g clip-path="url(#clip0_11_5987)">
<path d="M19.9136 4.33333H18.8136C18.5815 3.1107 17.9674 2.01213 17.0748 1.22278C16.1823 0.433431 15.0658 0.00157573 13.9136 0L11.9136 0C10.7614 0.00157573 9.64489 0.433431 8.75232 1.22278C7.85975 2.01213 7.24567 3.1107 7.01357 4.33333H5.91357C4.58798 4.33505 3.31713 4.90629 2.37979 5.92174C1.44246 6.93719 0.915162 8.31394 0.913574 9.75L0.913574 13H24.9136V9.75C24.912 8.31394 24.3847 6.93719 23.4474 5.92174C22.51 4.90629 21.2392 4.33505 19.9136 4.33333ZM9.09757 4.33333C9.30366 3.70185 9.68481 3.15477 10.1889 2.76693C10.6929 2.37909 11.2953 2.16944 11.9136 2.16667H13.9136C14.5318 2.16944 15.1342 2.37909 15.6383 2.76693C16.1423 3.15477 16.5235 3.70185 16.7296 4.33333H9.09757Z" fill="white"/>
<path d="M13.9136 16.25C13.9136 16.5373 13.8082 16.8128 13.6207 17.016C13.4331 17.2192 13.1788 17.3333 12.9136 17.3333C12.6484 17.3333 12.394 17.2192 12.2065 17.016C12.0189 16.8128 11.9136 16.5373 11.9136 16.25V15.1666H0.913574V20.5833C0.915162 22.0193 1.44246 23.3961 2.37979 24.4115C3.31713 25.427 4.58798 25.9982 5.91357 25.9999H19.9136C21.2392 25.9982 22.51 25.427 23.4474 24.4115C24.3847 23.3961 24.912 22.0193 24.9136 20.5833V15.1666H13.9136V16.25Z" fill="white"/>
</g>
<defs>
<clipPath id="clip0_11_5987">
<rect width="24" height="26" fill="white" transform="translate(0.913574)"/>
</clipPath>
</defs>
</svg>
