<svg width="37" height="37" viewBox="0 0 37 37" fill="none" xmlns="http://www.w3.org/2000/svg">
<g clip-path="url(#clip0_3_4963)">
<path d="M7.94072 33.9266C8.73637 33.9266 9.49943 33.6106 10.062 33.048C10.6247 32.4853 10.9407 31.7223 10.9407 30.9266V21.9266C10.9407 21.131 10.6247 20.3679 10.062 19.8053C9.49943 19.2427 8.73637 18.9266 7.94072 18.9266V17.4266C7.94072 14.6419 9.04697 11.9711 11.0161 10.002C12.9852 8.03288 15.6559 6.92664 18.4407 6.92664C21.2255 6.92664 23.8962 8.03288 25.8653 10.002C27.8345 11.9711 28.9407 14.6419 28.9407 17.4266V18.9266C28.1451 18.9266 27.382 19.2427 26.8194 19.8053C26.2568 20.3679 25.9407 21.131 25.9407 21.9266V30.9266H21.4407C21.0429 30.9266 20.6614 31.0847 20.3801 31.366C20.0988 31.6473 19.9407 32.0288 19.9407 32.4266C19.9407 32.8245 20.0988 33.206 20.3801 33.4873C20.6614 33.7686 21.0429 33.9266 21.4407 33.9266H28.9407C30.6597 33.9215 32.3248 33.326 33.6572 32.2398C34.9896 31.1536 35.9084 29.6427 36.2599 27.96C36.6113 26.2773 36.3741 24.5249 35.5878 22.9962C34.8015 21.4676 33.514 20.2554 31.9407 19.5626V17.4266C31.9407 13.8462 30.5184 10.4124 27.9867 7.88069C25.4549 5.34895 22.0211 3.92664 18.4407 3.92664C14.8603 3.92664 11.4265 5.34895 8.89478 7.88069C6.36304 10.4124 4.94072 13.8462 4.94072 17.4266V19.5626C3.36746 20.2554 2.07992 21.4676 1.29365 22.9962C0.507386 24.5249 0.270113 26.2773 0.621558 27.96C0.973003 29.6427 1.89183 31.1536 3.22423 32.2398C4.55662 33.326 6.2217 33.9215 7.94072 33.9266Z" fill="#6C2CFF"/>
</g>
<defs>
<clipPath id="clip0_3_4963">
<rect width="36" height="36" fill="white" transform="translate(0.440674 0.927124)"/>
</clipPath>
</defs>
</svg>
