<svg width="27" height="26" viewBox="0 0 27 26" fill="none" xmlns="http://www.w3.org/2000/svg">
<g clip-path="url(#clip0_11_6008)">
<path d="M5.44099 3.08201C7.49985 1.33591 10.0533 0.277546 12.7437 0.0551758V1.46351C12.8169 4.0729 13.678 6.59909 15.2137 8.70992C15.3721 8.93953 15.4441 9.2178 15.4169 9.4954C15.3898 9.77301 15.2652 10.032 15.0653 10.2266L14.6677 10.6242C14.4444 10.8465 14.1422 10.9712 13.8271 10.9712C13.512 10.9712 13.2097 10.8465 12.9864 10.6242L5.44099 3.08201ZM19.8829 8.47592C19.7556 8.60203 19.6584 8.75521 19.5985 8.92408C19.5386 9.09295 19.5175 9.27315 19.5369 9.45128C19.5563 9.62941 19.6155 9.80088 19.7103 9.95293C19.8051 10.105 19.933 10.2337 20.0844 10.3295C21.6946 11.318 23.5365 11.8653 25.4252 11.9166H26.7718C26.5494 9.22618 25.4911 6.6727 23.745 4.61384L19.8829 8.47592ZM14.9104 0.0551758V1.43318C14.9654 3.31108 15.5127 5.14161 16.4975 6.74151C16.5933 6.89274 16.722 7.02043 16.8739 7.1151C17.0259 7.20977 17.1972 7.26898 17.3752 7.28834C17.5532 7.3077 17.7333 7.28671 17.902 7.22692C18.0708 7.16714 18.2239 7.0701 18.35 6.94301L22.2132 3.07984C20.1541 1.3344 17.6006 0.276789 14.9104 0.0551758ZM16.5972 11.7617L16.1996 12.1593C15.9773 12.3826 15.8525 12.6848 15.8525 12.9999C15.8525 13.315 15.9773 13.6173 16.1996 13.8406L23.745 21.386C25.4912 19.3272 26.5496 16.7737 26.7718 14.0833H25.3938C22.7743 14.0143 20.2373 13.1531 18.1171 11.6133C17.887 11.4544 17.6082 11.3822 17.33 11.4094C17.0517 11.4365 16.7921 11.5613 16.5972 11.7617ZM11.057 14.2382L11.4546 13.8406C11.6769 13.6173 11.8016 13.315 11.8016 12.9999C11.8016 12.6848 11.6769 12.3826 11.4546 12.1593L3.90916 4.61384C2.16293 6.67263 1.10455 9.22614 0.882324 11.9166H2.26032C4.87982 11.9854 7.41695 12.8466 9.53707 14.3866C9.76711 14.5454 10.046 14.6177 10.3242 14.5905C10.6024 14.5633 10.862 14.4385 11.057 14.2382ZM12.9864 15.3724L12.5888 15.77C12.3893 15.9648 12.265 16.2238 12.2379 16.5013C12.2107 16.7788 12.2825 17.0569 12.4404 17.2867C13.9772 19.3978 14.8383 21.925 14.9104 24.5353V25.9436C17.6009 25.7214 20.1544 24.663 22.2132 22.9168L14.6677 15.3724C14.4444 15.1501 14.1422 15.0254 13.8271 15.0254C13.512 15.0254 13.2097 15.1501 12.9864 15.3724ZM12.7437 24.5667C12.6888 22.6888 12.1415 20.8582 11.1567 19.2583C11.0607 19.1072 10.932 18.9796 10.78 18.885C10.628 18.7905 10.4566 18.7313 10.2787 18.7121C10.1007 18.6928 9.92065 18.7139 9.75194 18.7738C9.58324 18.8337 9.43018 18.9308 9.30416 19.0579L5.44099 22.9178C7.49977 24.6641 10.0533 25.7224 12.7437 25.9447V24.5667ZM2.22891 14.0833H0.882324C1.10469 16.7737 2.16305 19.3271 3.90916 21.386L7.77124 17.5239C7.89853 17.3978 7.99575 17.2446 8.05565 17.0758C8.11556 16.9069 8.13661 16.7267 8.11725 16.5486C8.09788 16.3704 8.0386 16.199 7.94381 16.0469C7.84901 15.8949 7.72115 15.7661 7.56974 15.6703C5.95954 14.6819 4.1176 14.1345 2.22891 14.0833Z" fill="#6C2CFF"/>
</g>
<defs>
<clipPath id="clip0_11_6008">
<rect width="26" height="26" fill="white" transform="translate(0.827148)"/>
</clipPath>
</defs>
</svg>
