<svg width="44" height="44" viewBox="0 0 44 44" fill="none" xmlns="http://www.w3.org/2000/svg">
<g clip-path="url(#clip0_3_4996)">
<path d="M41.7607 20.5531H34.4507C34.3111 19.5659 34.053 18.5992 33.6821 17.6739L40.0013 14.0117C40.2125 13.898 40.3987 13.7431 40.5489 13.5562C40.6991 13.3692 40.8103 13.154 40.8758 12.9233C40.9413 12.6926 40.9598 12.451 40.9302 12.213C40.9007 11.975 40.8236 11.7454 40.7036 11.5377C40.5837 11.3301 40.4232 11.1486 40.2318 11.0041C40.0404 10.8596 39.8219 10.7549 39.5893 10.6964C39.3568 10.6379 39.1148 10.6267 38.8778 10.6634C38.6408 10.7002 38.4136 10.7841 38.2096 10.9103L31.885 14.5779C31.2804 13.8141 30.5896 13.1227 29.8264 12.5174L33.4922 6.19106C33.7129 5.78086 33.7652 5.30082 33.638 4.85271C33.5108 4.40459 33.214 4.02364 32.8107 3.79063C32.4073 3.55761 31.9291 3.49085 31.4773 3.60449C31.0256 3.71814 30.6359 4.00325 30.3908 4.39939L26.7232 10.715C25.798 10.3436 24.8313 10.0856 23.844 9.94639V2.63639C23.844 2.16121 23.6553 1.7055 23.3193 1.36949C22.9833 1.03349 22.5275 0.844727 22.0524 0.844727C21.5772 0.844727 21.1215 1.03349 20.7855 1.36949C20.4495 1.7055 20.2607 2.16121 20.2607 2.63639V9.94639C19.2735 10.0856 18.3067 10.3436 17.3815 10.715L13.7193 4.39581C13.4742 3.99967 13.0845 3.71455 12.6328 3.60091C12.181 3.48726 11.7028 3.55403 11.2994 3.78704C10.8961 4.02006 10.5993 4.40101 10.4721 4.84912C10.3449 5.29724 10.3972 5.77728 10.618 6.18748L14.2837 12.5174C13.5205 13.1227 12.8297 13.8141 12.2251 14.5779L5.90049 10.9103C5.69654 10.7841 5.46932 10.7002 5.23232 10.6634C4.99531 10.6267 4.75335 10.6379 4.52076 10.6964C4.28817 10.7549 4.0697 10.8596 3.8783 11.0041C3.68689 11.1486 3.52644 11.3301 3.40647 11.5377C3.2865 11.7454 3.20945 11.975 3.17987 12.213C3.1503 12.451 3.16881 12.6926 3.23431 12.9233C3.29981 13.154 3.41097 13.3692 3.56119 13.5562C3.71141 13.7431 3.89763 13.898 4.10883 14.0117L10.4227 17.6739C10.0517 18.5992 9.79362 19.5659 9.65403 20.5531H2.34403C1.86886 20.5531 1.41314 20.7418 1.07714 21.0778C0.741133 21.4138 0.552368 21.8695 0.552368 22.3447C0.552368 22.8199 0.741133 23.2756 1.07714 23.6116C1.41314 23.9476 1.86886 24.1364 2.34403 24.1364H9.65403C9.79362 25.1235 10.0517 26.0902 10.4227 27.0156L4.10345 30.6778C3.89226 30.7914 3.70603 30.9463 3.55581 31.1333C3.40559 31.3202 3.29444 31.5355 3.22894 31.7662C3.16344 31.9969 3.14492 32.2384 3.1745 32.4764C3.20407 32.7144 3.28113 32.9441 3.4011 33.1517C3.52107 33.3594 3.68151 33.5409 3.87292 33.6854C4.06433 33.8299 4.2828 33.9345 4.51539 33.993C4.74797 34.0515 4.98994 34.0627 5.22694 34.026C5.46395 33.9893 5.69116 33.9053 5.89512 33.7791L12.2197 30.1116C12.8243 30.8754 13.5151 31.5667 14.2783 32.172L10.618 38.4984C10.3972 38.9086 10.3449 39.3886 10.4721 39.8367C10.5993 40.2849 10.8961 40.6658 11.2994 40.8988C11.7028 41.1318 12.181 41.1986 12.6328 41.085C13.0845 40.9713 13.4742 40.6862 13.7193 40.2901L17.3815 33.9709C18.3068 34.3427 19.2735 34.6019 20.2607 34.7431V42.0531C20.2607 42.5282 20.4495 42.984 20.7855 43.32C21.1215 43.656 21.5772 43.8447 22.0524 43.8447C22.5275 43.8447 22.9833 43.656 23.3193 43.32C23.6553 42.984 23.844 42.5282 23.844 42.0531V34.7431C24.8311 34.6031 25.7978 34.345 26.7232 33.9744L30.3854 40.2936C30.6305 40.6898 31.0202 40.9749 31.472 41.0885C31.9237 41.2022 32.402 41.1354 32.8053 40.9024C33.2087 40.6694 33.5054 40.2884 33.6326 39.8403C33.7598 39.3922 33.7075 38.9122 33.4868 38.502L29.821 32.1756C30.5843 31.5703 31.2751 30.8789 31.8797 30.1152L38.2042 33.7827C38.4082 33.9089 38.6354 33.9929 38.8724 34.0296C39.1094 34.0663 39.3514 34.0551 39.584 33.9966C39.8166 33.9381 40.035 33.8335 40.2264 33.689C40.4178 33.5445 40.5783 33.363 40.6983 33.1553C40.8182 32.9476 40.8953 32.718 40.9249 32.48C40.9544 32.242 40.9359 32.0005 40.8704 31.7698C40.8049 31.539 40.6938 31.3238 40.5435 31.1369C40.3933 30.9499 40.2071 30.795 39.9959 30.6814L33.6767 27.0192C34.0498 26.0929 34.3097 25.125 34.4507 24.1364H41.7607C42.2359 24.1364 42.6916 23.9476 43.0276 23.6116C43.3636 23.2756 43.5524 22.8199 43.5524 22.3447C43.5524 21.8695 43.3636 21.4138 43.0276 21.0778C42.6916 20.7418 42.2359 20.5531 41.7607 20.5531Z" fill="#6C2CFF"/>
</g>
<defs>
<clipPath id="clip0_3_4996">
<rect width="43" height="43" fill="white" transform="translate(0.552368 0.844727)"/>
</clipPath>
</defs>
</svg>
