<svg width="34" height="35" viewBox="0 0 34 35" fill="none" xmlns="http://www.w3.org/2000/svg">
<g clip-path="url(#clip0_3_4987)">
<path d="M26.6774 5.82357H25.1649C24.8457 4.17771 24.0014 2.69886 22.7741 1.63628C21.5468 0.573699 20.0117 -0.00764444 18.4274 -0.00976562L15.6774 -0.00976562C14.0931 -0.00764444 12.5579 0.573699 11.3306 1.63628C10.1034 2.69886 9.259 4.17771 8.93987 5.82357H7.42737C5.60467 5.82588 3.85726 6.59485 2.56842 7.96181C1.27958 9.32876 0.554551 11.1821 0.552368 13.1152L0.552368 17.4902H33.5524V13.1152C33.5502 11.1821 32.8252 9.32876 31.5363 7.96181C30.2475 6.59485 28.5001 5.82588 26.6774 5.82357ZM11.8054 5.82357C12.0887 4.97349 12.6128 4.23703 13.3059 3.71495C13.999 3.19286 14.8273 2.91064 15.6774 2.9069H18.4274C19.2775 2.91064 20.1057 3.19286 20.7988 3.71495C21.4919 4.23703 22.016 4.97349 22.2994 5.82357H11.8054Z" fill="white"/>
<path d="M18.4274 21.8651C18.4274 22.2518 18.2825 22.6228 18.0246 22.8963C17.7668 23.1698 17.417 23.3234 17.0524 23.3234C16.6877 23.3234 16.338 23.1698 16.0801 22.8963C15.8222 22.6228 15.6774 22.2518 15.6774 21.8651V20.4067H0.552368V27.6984C0.554551 29.6315 1.27958 31.4849 2.56842 32.8518C3.85726 34.2188 5.60467 34.9877 7.42737 34.99H26.6774C28.5001 34.9877 30.2475 34.2188 31.5363 32.8518C32.8252 31.4849 33.5502 29.6315 33.5524 27.6984V20.4067H18.4274V21.8651Z" fill="white"/>
</g>
<defs>
<clipPath id="clip0_3_4987">
<rect width="33" height="35" fill="white" transform="translate(0.552368 -0.00976562)"/>
</clipPath>
</defs>
</svg>
