<svg width="42" height="42" viewBox="0 0 42 42" fill="none" xmlns="http://www.w3.org/2000/svg">
<path d="M41.5524 39.4277C41.5524 39.8808 41.3724 40.3153 41.052 40.6357C40.7316 40.956 40.2971 41.136 39.844 41.136H2.2607C1.80762 41.136 1.3731 40.956 1.05273 40.6357C0.732353 40.3153 0.552368 39.8808 0.552368 39.4277C0.552368 38.9746 0.732353 38.5401 1.05273 38.2197C1.3731 37.8993 1.80762 37.7193 2.2607 37.7193H39.844C40.2971 37.7193 40.7316 37.8993 41.052 38.2197C41.3724 38.5401 41.5524 38.9746 41.5524 39.4277ZM6.95862 25.761C8.78312 25.761 9.9482 24.6386 9.9482 24.0527C9.9482 23.5996 10.1282 23.1651 10.4486 22.8447C10.7689 22.5243 11.2035 22.3443 11.6565 22.3443C12.1096 22.3443 12.5441 22.5243 12.8645 22.8447C13.1849 23.1651 13.3649 23.5996 13.3649 24.0527C13.3649 24.5754 14.4941 25.761 16.3545 25.761C18.179 25.761 19.344 24.6386 19.344 24.0527C19.344 23.5996 19.524 23.1651 19.8444 22.8447C20.1648 22.5243 20.5993 22.3443 21.0524 22.3443C21.5054 22.3443 21.94 22.5243 22.2603 22.8447C22.5807 23.1651 22.7607 23.5996 22.7607 24.0527C22.7607 24.5754 23.8899 25.761 25.7503 25.761C27.5748 25.761 28.7399 24.6386 28.7399 24.0527C28.7399 23.5996 28.9199 23.1651 29.2402 22.8447C29.5606 22.5243 29.9951 22.3443 30.4482 22.3443C30.9013 22.3443 31.3358 22.5243 31.6562 22.8447C31.9766 23.1651 32.1565 23.5996 32.1565 24.0527C32.1565 24.5754 33.2857 25.761 35.1461 25.761C37.0065 25.761 38.1357 24.5754 38.1357 24.0527C38.133 21.7881 37.2322 19.6171 35.6309 18.0158C34.0296 16.4145 31.8586 15.5137 29.594 15.511H22.7607V11.78C23.7565 11.4279 24.6192 10.7768 25.2308 9.9157C25.8424 9.05458 26.173 8.02554 26.1774 6.96934C25.8106 4.79292 24.8208 2.76947 23.3279 1.14392C23.0323 0.839597 22.6788 0.597667 22.288 0.43246C21.8973 0.267253 21.4774 0.182129 21.0532 0.182129C20.629 0.182129 20.2091 0.267253 19.8184 0.43246C19.4277 0.597667 19.0741 0.839597 18.7786 1.14392C17.2844 2.76888 16.294 4.79252 15.9274 6.96934C15.9317 8.02554 16.2623 9.05458 16.8739 9.9157C17.4855 10.7768 18.3482 11.4279 19.344 11.78V15.511H12.5107C10.2461 15.5137 8.07511 16.4145 6.47383 18.0158C4.87254 19.6171 3.97175 21.7881 3.96903 24.0527C3.96903 24.5754 5.09824 25.761 6.95862 25.761ZM5.67737 34.3027H36.4274C36.8804 34.3027 37.315 34.1227 37.6353 33.8023C37.9557 33.4819 38.1357 33.0474 38.1357 32.5943V28.5371C37.1942 28.9551 36.1762 29.1732 35.1461 29.1777C33.4258 29.1907 31.7583 28.5843 30.4482 27.4693C29.1305 28.5678 27.4704 29.1715 25.7549 29.1762C24.0394 29.1809 22.3761 28.5862 21.0524 27.495C19.7286 28.5862 18.0654 29.1809 16.3498 29.1762C14.6343 29.1715 12.9743 28.5678 11.6565 27.4693C10.3464 28.5843 8.6789 29.1907 6.95862 29.1777C5.92851 29.1732 4.91053 28.9551 3.96903 28.5371V32.5943C3.96903 33.0474 4.14902 33.4819 4.46939 33.8023C4.78977 34.1227 5.22429 34.3027 5.67737 34.3027Z" fill="#6C2CFF"/>
</svg>
