<svg width="25" height="25" viewBox="0 0 25 25" fill="none" xmlns="http://www.w3.org/2000/svg">
<g clip-path="url(#clip0_1_5783)">
<path d="M19.8081 4.08813H18.7081C18.476 2.95955 17.8619 1.94548 16.9694 1.21685C16.0768 0.488225 14.9603 0.0895893 13.8081 0.0881348L11.8081 0.0881348C10.6559 0.0895893 9.53942 0.488225 8.64685 1.21685C7.75429 1.94548 7.1402 2.95955 6.90811 4.08813H5.80811C4.48251 4.08972 3.21166 4.61702 2.27433 5.55435C1.33699 6.49169 0.809693 7.76254 0.808105 9.08813L0.808105 12.0881H24.8081V9.08813C24.8065 7.76254 24.2792 6.49169 23.3419 5.55435C22.4045 4.61702 21.1337 4.08972 19.8081 4.08813ZM8.99211 4.08813C9.19819 3.50523 9.57934 3.00023 10.0834 2.64222C10.5875 2.28422 11.1898 2.0907 11.8081 2.08813H13.8081C14.4264 2.0907 15.0287 2.28422 15.5328 2.64222C16.0369 3.00023 16.418 3.50523 16.6241 4.08813H8.99211Z" fill="#6C2CFF"/>
<path d="M13.8081 15.088C13.8081 15.3532 13.7027 15.6076 13.5152 15.7951C13.3277 15.9827 13.0733 16.088 12.8081 16.088C12.5429 16.088 12.2885 15.9827 12.101 15.7951C11.9135 15.6076 11.8081 15.3532 11.8081 15.088V14.088H0.808105V19.088C0.809693 20.4136 1.33699 21.6844 2.27433 22.6218C3.21166 23.5591 4.48251 24.0864 5.80811 24.088H19.8081C21.1337 24.0864 22.4045 23.5591 23.3419 22.6218C24.2792 21.6844 24.8065 20.4136 24.8081 19.088V14.088H13.8081V15.088Z" fill="#6C2CFF"/>
</g>
<defs>
<clipPath id="clip0_1_5783">
<rect width="24" height="24" fill="white" transform="translate(0.808105 0.0881348)"/>
</clipPath>
</defs>
</svg>
