<svg width="28" height="26" viewBox="0 0 28 26" fill="none" xmlns="http://www.w3.org/2000/svg">
<g clip-path="url(#clip0_11_6021)">
<path d="M12.0771 18.4166H9.07227C8.62871 18.418 8.18928 18.3345 7.77948 18.171C7.36968 18.0075 6.99766 17.7673 6.68502 17.4643L0.885648 11.8798C0.853023 12.2503 0.827148 12.6218 0.827148 12.9999C0.832089 16.2578 2.10621 19.3954 4.39761 21.7923C6.68901 24.1892 9.83091 25.671 13.2021 25.9447V19.4999C13.2021 19.2126 13.0836 18.9371 12.8726 18.7339C12.6617 18.5307 12.3755 18.4166 12.0771 18.4166Z" fill="#6C2CFF"/>
<path d="M23.8176 3.76794L21.8039 5.70711C21.2755 6.21312 20.5612 6.49807 19.816 6.50011H18.2646C18.1155 6.50011 17.9724 6.55718 17.8669 6.65876C17.7614 6.76034 17.7021 6.89812 17.7021 7.04178V8.12511C17.7021 8.84341 17.4058 9.53228 16.8784 10.0402C16.3509 10.5481 15.6356 10.8334 14.8896 10.8334C14.7405 10.8334 14.5974 10.8905 14.4919 10.9921C14.3864 11.0937 14.3271 11.2315 14.3271 11.3751V11.9168C14.3271 12.2041 14.4457 12.4796 14.6567 12.6828C14.8676 12.886 15.1538 13.0001 15.4521 13.0001H18.8271C19.7223 13.0001 20.5807 13.3425 21.2136 13.952C21.8466 14.5615 22.2021 15.3882 22.2021 16.2501V17.2923C22.2022 17.4357 22.2612 17.5732 22.3664 17.6747L25.3195 20.5195C27.1812 18.0123 28.0527 14.9477 27.7774 11.877C27.5021 8.8062 26.098 5.93079 23.8176 3.76794Z" fill="#6C2CFF"/>
<path d="M19.9522 17.2931V16.2509C19.9522 15.9636 19.8336 15.688 19.6226 15.4849C19.4117 15.2817 19.1255 15.1676 18.8272 15.1676H15.4522C14.557 15.1676 13.6986 14.8252 13.0657 14.2157C12.4327 13.6062 12.0771 12.7795 12.0771 11.9176V11.3759C12.0771 10.6576 12.3735 9.96875 12.9009 9.46084C13.4284 8.95292 14.1437 8.66758 14.8897 8.66758C15.0388 8.66758 15.1819 8.61051 15.2874 8.50893C15.3929 8.40735 15.4522 8.26958 15.4522 8.12592V7.04258C15.4522 6.32429 15.7485 5.63541 16.2759 5.1275C16.8034 4.61959 17.5187 4.33425 18.2647 4.33425H19.816C19.9648 4.3334 20.1073 4.27665 20.2132 4.17608L22.0818 2.37667C20.3323 1.18681 18.3135 0.415805 16.1927 0.127621C14.0719 -0.160563 11.9103 0.0423783 9.88721 0.71961C7.86415 1.39684 6.03795 2.52884 4.56011 4.02169C3.08227 5.51455 1.9954 7.32522 1.38965 9.3035L8.27465 15.9335C8.37936 16.0344 8.50372 16.1143 8.64059 16.1688C8.77747 16.2233 8.92417 16.2512 9.07227 16.2509H12.0771C12.9723 16.2509 13.8307 16.5933 14.4636 17.2028C15.0966 17.8123 15.4522 18.639 15.4522 19.5009V25.9457C18.6322 25.6936 21.6158 24.3617 23.8705 22.1876L20.7757 19.2073C20.2502 18.6985 19.9543 18.0107 19.9522 17.2931Z" fill="#6C2CFF"/>
</g>
<defs>
<clipPath id="clip0_11_6021">
<rect width="27" height="26" fill="white" transform="translate(0.827148)"/>
</clipPath>
</defs>
</svg>
