<svg width="27" height="26" viewBox="0 0 27 26" fill="none" xmlns="http://www.w3.org/2000/svg">
<g clip-path="url(#clip0_11_6002)">
<path d="M6.24374 23.833C6.81838 23.833 7.36948 23.6048 7.77581 23.1984C8.18214 22.7921 8.41041 22.241 8.41041 21.6664V15.1664C8.41041 14.5917 8.18214 14.0406 7.77581 13.6343C7.36948 13.228 6.81838 12.9997 6.24374 12.9997V11.9164C6.24374 9.90516 7.0427 7.97631 8.46485 6.55415C9.887 5.132 11.8158 4.33305 13.8271 4.33305C15.8383 4.33305 17.7672 5.132 19.1893 6.55415C20.6115 7.97631 21.4104 9.90516 21.4104 11.9164V12.9997C20.8358 12.9997 20.2847 13.228 19.8783 13.6343C19.472 14.0406 19.2437 14.5917 19.2437 15.1664V21.6664H15.9937C15.7064 21.6664 15.4309 21.7805 15.2277 21.9837C15.0245 22.1868 14.9104 22.4624 14.9104 22.7497C14.9104 23.037 15.0245 23.3126 15.2277 23.5157C15.4309 23.7189 15.7064 23.833 15.9937 23.833H21.4104C22.6519 23.8293 23.8545 23.3992 24.8168 22.6148C25.779 21.8303 26.4426 20.7391 26.6965 19.5238C26.9503 18.3085 26.7789 17.0429 26.2111 15.9389C25.6432 14.8348 24.7133 13.9594 23.5771 13.459V11.9164C23.5771 9.33052 22.5498 6.85057 20.7214 5.02209C18.8929 3.19361 16.4129 2.16638 13.8271 2.16638C11.2412 2.16638 8.76126 3.19361 6.93278 5.02209C5.1043 6.85057 4.07707 9.33052 4.07707 11.9164V13.459C2.94083 13.9594 2.01094 14.8348 1.44308 15.9389C0.875221 17.0429 0.703857 18.3085 0.957679 19.5238C1.2115 20.7391 1.8751 21.8303 2.83738 22.6148C3.79967 23.3992 5.00223 23.8293 6.24374 23.833Z" fill="#6C2CFF"/>
</g>
<defs>
<clipPath id="clip0_11_6002">
<rect width="26" height="26" fill="white" transform="translate(0.827148)"/>
</clipPath>
</defs>
</svg>
