<svg width="39" height="39" viewBox="0 0 39 39" fill="none" xmlns="http://www.w3.org/2000/svg">
<g clip-path="url(#clip0_3_4972)">
<path d="M7.18427 5.28602C10.1934 2.73402 13.9254 1.18719 17.8575 0.862183V2.92052C17.9644 6.73425 19.2229 10.4264 21.4675 13.5114C21.699 13.847 21.8042 14.2537 21.7645 14.6594C21.7248 15.0652 21.5427 15.4438 21.2506 15.7281L20.6695 16.3092C20.3431 16.6341 19.9014 16.8164 19.4409 16.8164C18.9803 16.8164 18.5386 16.6341 18.2122 16.3092L7.18427 5.28602ZM28.2917 13.1694C28.1057 13.3537 27.9636 13.5776 27.876 13.8244C27.7885 14.0712 27.7577 14.3346 27.786 14.595C27.8143 14.8553 27.9009 15.1059 28.0395 15.3281C28.178 15.5504 28.3649 15.7385 28.5862 15.8785C30.9396 17.3232 33.6316 18.1232 36.392 18.1981H38.3601C38.0351 14.266 36.4883 10.534 33.9363 7.52485L28.2917 13.1694ZM21.0242 0.862183V2.87618C21.1045 5.62082 21.9044 8.2962 23.3438 10.6345C23.4838 10.8555 23.6719 11.0422 23.894 11.1805C24.1161 11.3189 24.3665 11.4054 24.6266 11.4337C24.8867 11.462 25.1499 11.4313 25.3965 11.344C25.6432 11.2566 25.867 11.1148 26.0513 10.929L31.6974 5.28285C28.688 2.73181 24.956 1.18608 21.0242 0.862183ZM23.4894 17.9717L22.9084 18.5528C22.5835 18.8792 22.4011 19.3209 22.4011 19.7814C22.4011 20.2419 22.5835 20.6837 22.9084 21.0101L33.9363 32.038C36.4885 29.029 38.0353 25.297 38.3601 21.3648H36.3461C32.5176 21.264 28.8096 20.0054 25.7109 17.7548C25.3746 17.5226 24.9671 17.4171 24.5605 17.4568C24.1538 17.4965 23.7744 17.6789 23.4894 17.9717ZM15.3923 21.5912L15.9734 21.0101C16.2982 20.6837 16.4806 20.2419 16.4806 19.7814C16.4806 19.3209 16.2982 18.8792 15.9734 18.5528L4.94544 7.52485C2.39326 10.5338 0.846401 14.2659 0.521606 18.1981H2.53561C6.36411 18.2987 10.0722 19.5573 13.1709 21.8081C13.5071 22.0402 13.9146 22.1458 14.3213 22.1061C14.7279 22.0664 15.1073 21.884 15.3923 21.5912ZM18.2122 23.2489L17.6311 23.83C17.3395 24.1147 17.1579 24.4932 17.1182 24.8988C17.0785 25.3043 17.1833 25.7109 17.4142 26.0467C19.6602 29.1322 20.9188 32.8258 21.0242 36.6408V38.6991C24.9564 38.3743 28.6884 36.8274 31.6974 34.2753L20.6695 23.2489C20.3431 22.9241 19.9014 22.7417 19.4409 22.7417C18.9803 22.7417 18.5386 22.9241 18.2122 23.2489ZM17.8575 36.6867C17.7772 33.942 16.9773 31.2667 15.5379 28.9283C15.3978 28.7074 15.2096 28.5209 14.9874 28.3827C14.7653 28.2445 14.5148 28.1581 14.2547 28.13C13.9946 28.1018 13.7315 28.1327 13.4849 28.2202C13.2383 28.3077 13.0146 28.4496 12.8304 28.6354L7.18427 34.2768C10.1933 36.829 13.9253 38.3759 17.8575 38.7007V36.6867ZM2.48969 21.3648H0.521606C0.84661 25.2969 2.39344 29.0289 4.94544 32.038L10.59 26.3934C10.7761 26.2091 10.9181 25.9852 11.0057 25.7384C11.0933 25.4916 11.124 25.2283 11.0957 24.9679C11.0674 24.7076 10.9808 24.457 10.8422 24.2347C10.7037 24.0125 10.5168 23.8244 10.2955 23.6843C7.94216 22.2397 5.25008 21.4397 2.48969 21.3648Z" fill="#6C2CFF"/>
</g>
<defs>
<clipPath id="clip0_3_4972">
<rect width="38" height="38" fill="white" transform="translate(0.440674 0.781494)"/>
</clipPath>
</defs>
</svg>
