<svg width="26" height="26" viewBox="0 0 26 26" fill="none" xmlns="http://www.w3.org/2000/svg">
<g clip-path="url(#clip0_11_5991)">
<path d="M25.9136 24.9167C25.9136 25.204 25.8038 25.4796 25.6085 25.6827C25.4131 25.8859 25.1482 26 24.8719 26H1.95524C1.67897 26 1.41402 25.8859 1.21867 25.6827C1.02332 25.4796 0.913574 25.204 0.913574 24.9167C0.913574 24.6294 1.02332 24.3538 1.21867 24.1507C1.41402 23.9475 1.67897 23.8334 1.95524 23.8334H24.8719C25.1482 23.8334 25.4131 23.9475 25.6085 24.1507C25.8038 24.3538 25.9136 24.6294 25.9136 24.9167ZM4.81982 16.25C5.93232 16.25 6.64274 15.5383 6.64274 15.1667C6.64274 14.8794 6.75249 14.6038 6.94784 14.4007C7.14319 14.1975 7.40814 14.0834 7.68441 14.0834C7.96067 14.0834 8.22563 14.1975 8.42098 14.4007C8.61633 14.6038 8.72607 14.8794 8.72607 15.1667C8.72607 15.4982 9.41462 16.25 10.549 16.25C11.6615 16.25 12.3719 15.5383 12.3719 15.1667C12.3719 14.8794 12.4817 14.6038 12.677 14.4007C12.8724 14.1975 13.1373 14.0834 13.4136 14.0834C13.6898 14.0834 13.9548 14.1975 14.1501 14.4007C14.3455 14.6038 14.4552 14.8794 14.4552 15.1667C14.4552 15.4982 15.1438 16.25 16.2782 16.25C17.3907 16.25 18.1011 15.5383 18.1011 15.1667C18.1011 14.8794 18.2108 14.6038 18.4062 14.4007C18.6015 14.1975 18.8665 14.0834 19.1427 14.0834C19.419 14.0834 19.684 14.1975 19.8793 14.4007C20.0747 14.6038 20.1844 14.8794 20.1844 15.1667C20.1844 15.4982 20.8729 16.25 22.0073 16.25C23.1417 16.25 23.8302 15.4982 23.8302 15.1667C23.8286 13.7307 23.2793 12.3539 22.3029 11.3385C21.3265 10.323 20.0027 9.75177 18.6219 9.75005H14.4552V7.38405C15.0624 7.16079 15.5885 6.74788 15.9614 6.20181C16.3343 5.65573 16.5359 5.00316 16.5386 4.33338C16.3149 2.95321 15.7114 1.67005 14.8011 0.639216C14.6209 0.446228 14.4053 0.292809 14.167 0.188043C13.9288 0.0832779 13.6728 0.0292969 13.4141 0.0292969C13.1554 0.0292969 12.8994 0.0832779 12.6612 0.188043C12.4229 0.292809 12.2073 0.446228 12.0271 0.639216C11.116 1.66967 10.5121 2.95296 10.2886 4.33338C10.2912 5.00316 10.4928 5.65573 10.8657 6.20181C11.2387 6.74788 11.7647 7.16079 12.3719 7.38405V9.75005H8.20524C6.82441 9.75177 5.50061 10.323 4.52422 11.3385C3.54783 12.3539 2.99856 13.7307 2.99691 15.1667C2.99691 15.4982 3.68545 16.25 4.81982 16.25ZM4.03857 21.6667H22.7886C23.0648 21.6667 23.3298 21.5526 23.5251 21.3494C23.7205 21.1462 23.8302 20.8707 23.8302 20.5834V18.0105C23.2562 18.2756 22.6354 18.4139 22.0073 18.4167C20.9584 18.425 19.9416 18.0404 19.1427 17.3334C18.3392 18.03 17.327 18.4128 16.281 18.4158C15.2349 18.4187 14.2207 18.0416 13.4136 17.3496C12.6064 18.0416 11.5922 18.4187 10.5462 18.4158C9.50012 18.4128 8.48791 18.03 7.68441 17.3334C6.88557 18.0404 5.86878 18.425 4.81982 18.4167C4.19171 18.4139 3.57099 18.2756 2.99691 18.0105V20.5834C2.99691 20.8707 3.10665 21.1462 3.302 21.3494C3.49735 21.5526 3.76231 21.6667 4.03857 21.6667Z" fill="#6C2CFF"/>
</g>
<defs>
<clipPath id="clip0_11_5991">
<rect width="25" height="26" fill="white" transform="translate(0.913574)"/>
</clipPath>
</defs>
</svg>
