<svg width="19" height="18" viewBox="0 0 19 18" fill="none" xmlns="http://www.w3.org/2000/svg">
<path d="M0.826971 14.959V3.04388C0.825808 2.54286 0.953047 2.0499 1.19655 1.61203C1.44005 1.17416 1.7917 0.805992 2.21793 0.542653C2.64417 0.279314 3.13077 0.12959 3.63131 0.107764C4.13186 0.0859388 4.62965 0.192741 5.07719 0.41798L16.9968 6.37629C17.456 6.60343 17.8473 6.94759 18.1311 7.3741C18.415 7.80061 18.5814 8.2944 18.6137 8.80572C18.6504 9.38265 18.5167 9.95764 18.2292 10.4592C17.9417 10.9607 17.5131 11.3667 16.9968 11.6266L5.07719 17.5849C4.62951 17.8088 4.13202 17.9146 3.63197 17.8922C3.13191 17.8698 2.64589 17.7199 2.22005 17.4568C1.79421 17.1937 1.44269 16.8261 1.19888 16.389C0.955061 15.9518 0.82704 15.4596 0.826971 14.959Z" fill="#6C2CFF"/>
</svg>
