<svg width="26" height="26" viewBox="0 0 26 26" fill="none" xmlns="http://www.w3.org/2000/svg">
<g clip-path="url(#clip0_11_5997)">
<path d="M25.6085 5.73457L20.4001 0.317898C20.2037 0.120561 19.9405 0.0113666 19.6674 0.0138349C19.3943 0.0163032 19.133 0.130236 18.9399 0.331095C18.7468 0.531954 18.6372 0.803667 18.6349 1.08771C18.6325 1.37176 18.7375 1.64541 18.9272 1.84973L20.7949 3.79215L18.2168 6.4734C17.3951 5.85051 16.416 5.4914 15.4003 5.44039C14.3846 5.38937 13.3768 5.64868 12.5012 6.18632L15.1918 8.98457C15.2913 9.0845 15.3707 9.20404 15.4252 9.33621C15.4798 9.46838 15.5086 9.61054 15.5098 9.75438C15.511 9.89823 15.4846 10.0409 15.4322 10.174C15.3799 10.3072 15.3025 10.4281 15.2047 10.5298C15.1069 10.6315 14.9906 10.712 14.8626 10.7665C14.7346 10.8209 14.5974 10.8483 14.4591 10.8471C14.3208 10.8458 14.1841 10.816 14.057 10.7592C13.9299 10.7024 13.815 10.6199 13.7189 10.5164L10.8991 7.58382L9.24701 9.30198L12.0668 12.2346C12.1663 12.3345 12.2457 12.454 12.3002 12.5862C12.3548 12.7184 12.3836 12.8605 12.3848 13.0044C12.386 13.1482 12.3596 13.2909 12.3072 13.424C12.2549 13.5572 12.1775 13.6781 12.0797 13.7798C11.9819 13.8815 11.8656 13.962 11.7376 14.0165C11.6096 14.0709 11.4724 14.0983 11.3341 14.0971C11.1958 14.0958 11.0591 14.066 10.932 14.0092C10.8049 13.9524 10.69 13.8699 10.5939 13.7664L7.7741 10.8338L6.12201 12.5541L8.93972 15.4846C9.03921 15.5845 9.11857 15.704 9.17316 15.8362C9.22775 15.9684 9.25649 16.1105 9.25769 16.2544C9.25889 16.3982 9.23254 16.5409 9.18016 16.674C9.12778 16.8072 9.05044 16.9281 8.95263 17.0298C8.85483 17.1315 8.73852 17.212 8.61051 17.2665C8.48249 17.3209 8.34532 17.3483 8.20701 17.3471C8.0687 17.3458 7.93201 17.316 7.80492 17.2592C7.67784 17.2024 7.56289 17.1199 7.4668 17.0164L4.87826 14.3221C4.32472 15.4121 4.03645 16.6266 4.03868 17.8592V21.2176L1.21889 24.1512C1.1194 24.2512 1.04004 24.3707 0.985448 24.5029C0.930856 24.635 0.90212 24.7772 0.900918 24.921C0.899716 25.0649 0.926072 25.2075 0.978448 25.3407C1.03082 25.4738 1.10817 25.5948 1.20598 25.6965C1.30378 25.7982 1.42008 25.8787 1.5481 25.9331C1.67612 25.9876 1.81329 26.015 1.9516 26.0138C2.08991 26.0125 2.2266 25.9826 2.35368 25.9258C2.48077 25.8691 2.59571 25.7865 2.6918 25.6831L5.5116 22.7505H8.74076C9.69856 22.7531 10.6473 22.5582 11.5322 22.177C12.4171 21.7958 13.2205 21.2359 13.896 20.5296L19.1793 15.035C20.0542 14.1198 20.5856 12.9095 20.6777 11.6226C20.7698 10.3356 20.4164 9.05688 19.6814 8.01715L22.2678 5.32398L24.1356 7.2664C24.332 7.46374 24.5951 7.57293 24.8683 7.57046C25.1414 7.56799 25.4026 7.45406 25.5958 7.2532C25.7889 7.05234 25.8985 6.78063 25.9008 6.49658C25.9032 6.21254 25.7982 5.93888 25.6085 5.73457Z" fill="#6C2CFF"/>
</g>
<defs>
<clipPath id="clip0_11_5997">
<rect width="25" height="26" fill="white" transform="translate(0.913574)"/>
</clipPath>
</defs>
</svg>
