<svg width="26" height="26" viewBox="0 0 26 26" fill="none" xmlns="http://www.w3.org/2000/svg">
<path d="M21.5447 7.91109C21.2281 7.69212 20.8457 7.58891 20.4619 7.61885C20.0781 7.64878 19.7163 7.81002 19.4374 8.07544C18.1718 9.01271 16.6786 9.59467 15.1125 9.76107C14.8316 9.75376 14.5646 9.63737 14.368 9.43655C14.1714 9.23573 14.0607 8.96627 14.0594 8.68525V7.56618C15.716 7.57231 17.3117 6.94213 18.5171 5.80575C19.7225 4.66936 20.4456 3.11352 20.537 1.45944C20.5607 1.26806 20.5404 1.0738 20.4777 0.891452C20.4149 0.709098 20.3115 0.543446 20.1751 0.407091C20.0388 0.270737 19.8731 0.16727 19.6908 0.10456C19.5084 0.0418496 19.3142 0.0215469 19.1228 0.0451958C17.1171 0.12845 14.1675 1.68866 13.5534 4.04572C13.1856 2.67409 12.5126 1.40334 11.5845 0.328476C11.3828 0.128481 11.1104 0.0159246 10.8263 0.0151408C10.5422 0.0143571 10.2692 0.125409 10.0664 0.324288C9.86354 0.523166 9.7471 0.793892 9.74226 1.07793C9.73742 1.36198 9.84456 1.63651 10.0405 1.84219C11.1177 3.17443 11.748 4.81211 11.8418 6.5228H9.19392C6.68647 6.59943 4.31152 7.66645 2.58903 9.49026C0.86655 11.3141 -0.0631265 13.7461 0.00354117 16.2538C-0.170536 22.3087 6.10596 27.9018 11.6267 25.3199C12.0483 25.0518 12.5384 24.9111 13.038 24.9147C13.5376 24.9184 14.0256 25.0662 14.4433 25.3404C15.1491 25.7485 15.9473 25.9703 16.7625 25.9848C26.1832 25.9005 29.2657 12.8739 21.5447 7.91109Z" fill="#6C2CFF"/>
</svg>
