<svg width="29" height="28" viewBox="0 0 29 28" fill="none" xmlns="http://www.w3.org/2000/svg">
<g clip-path="url(#clip0_11_6013)">
<path d="M27.6605 25.6667H6.66048C5.73222 25.6667 4.84199 25.2979 4.18561 24.6415C3.52923 23.9852 3.16048 23.0949 3.16048 22.1667V1.16667C3.16048 0.857247 3.03757 0.560501 2.81877 0.341709C2.59998 0.122916 2.30323 0 1.99382 0C1.6844 0 1.38765 0.122916 1.16886 0.341709C0.950065 0.560501 0.827148 0.857247 0.827148 1.16667L0.827148 22.1667C0.829001 23.7132 1.44418 25.1959 2.53774 26.2894C3.6313 27.383 5.11395 27.9981 6.66048 28H27.6605C27.9699 28 28.2666 27.8771 28.4854 27.6583C28.7042 27.4395 28.8271 27.1428 28.8271 26.8333C28.8271 26.5239 28.7042 26.2272 28.4854 26.0084C28.2666 25.7896 27.9699 25.6667 27.6605 25.6667Z" fill="#6C2CFF"/>
<path d="M7.82731 23.3333C8.13673 23.3333 8.43347 23.2103 8.65227 22.9915C8.87106 22.7727 8.99397 22.476 8.99397 22.1666V13.9999C8.99397 13.6905 8.87106 13.3938 8.65227 13.175C8.43347 12.9562 8.13673 12.8333 7.82731 12.8333C7.51789 12.8333 7.22114 12.9562 7.00235 13.175C6.78356 13.3938 6.66064 13.6905 6.66064 13.9999V22.1666C6.66064 22.476 6.78356 22.7727 7.00235 22.9915C7.22114 23.2103 7.51789 23.3333 7.82731 23.3333Z" fill="#6C2CFF"/>
<path d="M12.4937 11.6667V22.1666C12.4937 22.4761 12.6166 22.7728 12.8354 22.9916C13.0542 23.2104 13.3509 23.3333 13.6603 23.3333C13.9697 23.3333 14.2665 23.2104 14.4853 22.9916C14.7041 22.7728 14.827 22.4761 14.827 22.1666V11.6667C14.827 11.3572 14.7041 11.0605 14.4853 10.8417C14.2665 10.6229 13.9697 10.5 13.6603 10.5C13.3509 10.5 13.0542 10.6229 12.8354 10.8417C12.6166 11.0605 12.4937 11.3572 12.4937 11.6667Z" fill="#6C2CFF"/>
<path d="M18.3271 15.1667V22.1667C18.3271 22.4761 18.4501 22.7728 18.6689 22.9916C18.8877 23.2104 19.1844 23.3333 19.4938 23.3333C19.8032 23.3333 20.1 23.2104 20.3188 22.9916C20.5376 22.7728 20.6605 22.4761 20.6605 22.1667V15.1667C20.6605 14.8572 20.5376 14.5605 20.3188 14.3417C20.1 14.1229 19.8032 14 19.4938 14C19.1844 14 18.8877 14.1229 18.6689 14.3417C18.4501 14.5605 18.3271 14.8572 18.3271 15.1667Z" fill="#6C2CFF"/>
<path d="M24.1606 10.4999V22.1666C24.1606 22.476 24.2836 22.7728 24.5024 22.9915C24.7211 23.2103 25.0179 23.3333 25.3273 23.3333C25.6367 23.3333 25.9335 23.2103 26.1523 22.9915C26.3711 22.7728 26.494 22.476 26.494 22.1666V10.4999C26.494 10.1905 26.3711 9.89375 26.1523 9.67496C25.9335 9.45617 25.6367 9.33325 25.3273 9.33325C25.0179 9.33325 24.7211 9.45617 24.5024 9.67496C24.2836 9.89375 24.1606 10.1905 24.1606 10.4999Z" fill="#6C2CFF"/>
<path d="M7.82706 10.4999C8.13646 10.4999 8.43315 10.3769 8.6519 10.1581L12.8356 5.97445C13.0579 5.76261 13.3533 5.64445 13.6604 5.64445C13.9675 5.64445 14.2629 5.76261 14.4852 5.97445L17.0192 8.50845C17.6756 9.16459 18.5657 9.5332 19.4937 9.5332C20.4218 9.5332 21.3119 9.16459 21.9682 8.50845L28.4852 1.99145C28.6977 1.77141 28.8153 1.47671 28.8127 1.17081C28.81 0.864915 28.6873 0.5723 28.471 0.355991C28.2547 0.139682 27.9621 0.0169845 27.6562 0.0143263C27.3503 0.0116682 27.0556 0.129262 26.8356 0.341779L20.3186 6.85761C20.0998 7.07633 19.8031 7.1992 19.4937 7.1992C19.1844 7.1992 18.8877 7.07633 18.6689 6.85761L16.1349 4.32478C15.4785 3.66863 14.5885 3.30003 13.6604 3.30003C12.7323 3.30003 11.8422 3.66863 11.1859 4.32478L7.00223 8.50845C6.83912 8.67161 6.72804 8.87946 6.68305 9.10574C6.63805 9.33202 6.66116 9.56656 6.74944 9.77971C6.83772 9.99286 6.98722 10.175 7.17903 10.3032C7.37084 10.4314 7.59635 10.4999 7.82706 10.4999Z" fill="#6C2CFF"/>
</g>
<defs>
<clipPath id="clip0_11_6013">
<rect width="28" height="28" fill="white" transform="translate(0.827148)"/>
</clipPath>
</defs>
</svg>
