<svg width="23" height="22" viewBox="0 0 23 22" fill="none" xmlns="http://www.w3.org/2000/svg">
<path d="M0.308678 10.5281C0.336053 10.4403 0.348325 10.3487 0.379476 10.2619L2.92631 3.25101C3.2589 2.34131 3.86269 1.5556 4.65611 1.00004C5.44954 0.44447 6.39437 0.145813 7.36296 0.144409H15.2923C16.261 0.145749 17.206 0.444491 17.9995 1.00025C18.7929 1.55602 19.3966 2.342 19.729 3.25196L22.2777 10.2619C22.3088 10.3487 22.3211 10.4403 22.3485 10.5281H0.308678ZM18.8794 12.416V14.304C18.8794 14.5543 18.7799 14.7944 18.6029 14.9714C18.4259 15.1485 18.1858 15.2479 17.9354 15.2479C17.6851 15.2479 17.445 15.1485 17.2679 14.9714C17.0909 14.7944 16.9915 14.5543 16.9915 14.304V12.416H5.66382V14.304C5.66382 14.5543 5.56436 14.7944 5.38734 14.9714C5.21031 15.1485 4.9702 15.2479 4.71985 15.2479C4.46949 15.2479 4.22939 15.1485 4.05236 14.9714C3.87533 14.7944 3.77588 14.5543 3.77588 14.304V12.416H0V14.304C0.00120675 15.2213 0.269697 16.1184 0.772638 16.8855C1.27558 17.6527 1.99117 18.2566 2.83191 18.6236V19.9678C2.83191 20.4685 3.03082 20.9487 3.38487 21.3027C3.73893 21.6568 4.21914 21.8557 4.71985 21.8557C5.22056 21.8557 5.70077 21.6568 6.05482 21.3027C6.40888 20.9487 6.60779 20.4685 6.60779 19.9678V19.0238H16.0475V19.9678C16.0475 20.4685 16.2464 20.9487 16.6004 21.3027C16.9545 21.6568 17.4347 21.8557 17.9354 21.8557C18.4361 21.8557 18.9163 21.6568 19.2704 21.3027C19.6245 20.9487 19.8234 20.4685 19.8234 19.9678V18.6236C20.6641 18.2566 21.3797 17.6527 21.8826 16.8855C22.3856 16.1184 22.6541 15.2213 22.6553 14.304V12.416H18.8794Z" fill="#6C2CFF"/>
</svg>
