<svg width="43" height="42" viewBox="0 0 43 42" fill="none" xmlns="http://www.w3.org/2000/svg">
<path d="M40.4025 19.1946H33.3334C33.1984 18.24 32.9488 17.3052 32.5901 16.4103L38.701 12.8688C38.9053 12.7589 39.0854 12.6091 39.2306 12.4283C39.3759 12.2475 39.4834 12.0394 39.5467 11.8163C39.6101 11.5932 39.628 11.3596 39.5994 11.1295C39.5708 10.8993 39.4963 10.6772 39.3802 10.4764C39.2642 10.2756 39.1091 10.1001 38.924 9.96035C38.7389 9.8206 38.5276 9.71944 38.3027 9.66286C38.0778 9.60627 37.8438 9.59542 37.6146 9.63095C37.3854 9.66648 37.1657 9.74766 36.9684 9.86968L30.8523 13.4163C30.2676 12.6778 29.5996 12.0092 28.8615 11.4238L32.4065 5.30598C32.6199 4.9093 32.6705 4.44508 32.5475 4.01174C32.4245 3.5784 32.1375 3.21 31.7474 2.98467C31.3574 2.75933 30.8949 2.69477 30.458 2.80467C30.0212 2.91456 29.6443 3.19028 29.4073 3.57337L25.8606 9.68083C24.9659 9.3217 24.031 9.07212 23.0763 8.93754V1.86848C23.0763 1.40896 22.8938 0.968263 22.5689 0.643335C22.2439 0.318407 21.8032 0.135864 21.3437 0.135864C20.8842 0.135864 20.4435 0.318407 20.1186 0.643335C19.7936 0.968263 19.6111 1.40896 19.6111 1.86848V8.93754C18.6564 9.07212 17.7215 9.3217 16.8268 9.68083L13.2853 3.5699C13.0483 3.18682 12.6715 2.9111 12.2346 2.8012C11.7977 2.6913 11.3353 2.75586 10.9452 2.9812C10.5551 3.20654 10.2682 3.57493 10.1452 4.00827C10.0221 4.44162 10.0727 4.90584 10.2862 5.30252L13.8311 11.4238C13.093 12.0092 12.425 12.6778 11.8403 13.4163L5.72422 9.86968C5.52698 9.74766 5.30726 9.66648 5.07806 9.63095C4.84887 9.59542 4.61488 9.60627 4.38996 9.66286C4.16504 9.71944 3.95377 9.8206 3.76867 9.96035C3.58357 10.1001 3.42842 10.2756 3.3124 10.4764C3.19638 10.6772 3.12187 10.8993 3.09327 11.1295C3.06467 11.3596 3.08257 11.5932 3.14591 11.8163C3.20925 12.0394 3.31675 12.2475 3.46201 12.4283C3.60728 12.6091 3.78737 12.7589 3.9916 12.8688L10.0973 16.4103C9.73859 17.3052 9.48903 18.24 9.35404 19.1946H2.28498C1.82546 19.1946 1.38477 19.3771 1.05984 19.7021C0.734911 20.027 0.552368 20.4677 0.552368 20.9272C0.552368 21.3867 0.734911 21.8274 1.05984 22.1524C1.38477 22.4773 1.82546 22.6598 2.28498 22.6598H9.35404C9.48903 23.6144 9.73859 24.5493 10.0973 25.4441L3.98641 28.9856C3.78217 29.0955 3.60208 29.2453 3.45682 29.4261C3.31155 29.6069 3.20406 29.815 3.14072 30.0381C3.07737 30.2612 3.05947 30.4948 3.08807 30.725C3.11667 30.9551 3.19119 31.1772 3.3072 31.378C3.42322 31.5788 3.57838 31.7543 3.76347 31.8941C3.94857 32.0338 4.15984 32.135 4.38476 32.1916C4.60968 32.2482 4.84368 32.259 5.07287 32.2235C5.30206 32.188 5.52178 32.1068 5.71902 31.9847L11.8351 28.4381C12.4198 29.1767 13.0878 29.8453 13.8259 30.4306L10.2862 36.5485C10.0727 36.9451 10.0221 37.4094 10.1452 37.8427C10.2682 38.276 10.5551 38.6444 10.9452 38.8698C11.3353 39.0951 11.7977 39.1597 12.2346 39.0498C12.6715 38.9399 13.0483 38.6642 13.2853 38.2811L16.8268 32.1701C17.7216 32.5297 18.6564 32.7804 19.6111 32.9169V39.986C19.6111 40.4455 19.7936 40.8862 20.1186 41.2111C20.4435 41.536 20.8842 41.7186 21.3437 41.7186C21.8032 41.7186 22.2439 41.536 22.5689 41.2111C22.8938 40.8862 23.0763 40.4455 23.0763 39.986V32.9169C24.0309 32.7815 24.9657 32.532 25.8606 32.1736L29.4021 38.2845C29.6391 38.6676 30.016 38.9433 30.4528 39.0532C30.8897 39.1631 31.3522 39.0986 31.7422 38.8732C32.1323 38.6479 32.4193 38.2795 32.5423 37.8462C32.6653 37.4128 32.6147 36.9486 32.4013 36.5519L28.8563 30.4341C29.5944 29.8487 30.2624 29.1801 30.8471 28.4416L36.9632 31.9882C37.1605 32.1102 37.3802 32.1914 37.6094 32.2269C37.8386 32.2625 38.0726 32.2516 38.2975 32.195C38.5224 32.1385 38.7337 32.0373 38.9188 31.8975C39.1039 31.7578 39.259 31.5823 39.375 31.3815C39.4911 31.1807 39.5656 30.9586 39.5942 30.7284C39.6228 30.4983 39.6049 30.2647 39.5415 30.0416C39.4782 29.8185 39.3707 29.6104 39.2254 29.4296C39.0802 29.2488 38.9001 29.099 38.6958 28.9891L32.5849 25.4476C32.9457 24.5519 33.197 23.6158 33.3334 22.6598H40.4025C40.862 22.6598 41.3027 22.4773 41.6276 22.1524C41.9525 21.8274 42.1351 21.3867 42.1351 20.9272C42.1351 20.4677 41.9525 20.027 41.6276 19.7021C41.3027 19.3771 40.862 19.1946 40.4025 19.1946Z" fill="#6C2CFF"/>
</svg>
