<svg width="27" height="26" viewBox="0 0 27 26" fill="none" xmlns="http://www.w3.org/2000/svg">
<path d="M25.7975 11.9181H21.3833C21.299 11.322 21.1432 10.7382 20.9192 10.1795L24.7351 7.96804C24.8626 7.89941 24.975 7.80587 25.0657 7.69298C25.1565 7.58008 25.2236 7.45012 25.2631 7.3108C25.3027 7.17148 25.3139 7.02564 25.296 6.88192C25.2781 6.7382 25.2316 6.59953 25.1592 6.47412C25.0867 6.34872 24.9898 6.23914 24.8743 6.15187C24.7587 6.06461 24.6267 6.00144 24.4863 5.96611C24.3459 5.93077 24.1997 5.924 24.0566 5.94618C23.9135 5.96837 23.7763 6.01906 23.6531 6.09526L19.834 8.30992C19.4689 7.84872 19.0518 7.43122 18.5909 7.06573L20.8045 3.24551C20.9378 2.99781 20.9694 2.70793 20.8925 2.43733C20.8157 2.16674 20.6365 1.9367 20.393 1.79599C20.1494 1.65528 19.8606 1.61497 19.5878 1.68359C19.315 1.75222 19.0797 1.92439 18.9317 2.1636L16.717 5.97733C16.1583 5.75307 15.5745 5.59723 14.9784 5.51319V1.099C14.9784 0.812059 14.8644 0.536871 14.6615 0.333974C14.4586 0.131076 14.1834 0.0170898 13.8965 0.0170898C13.6095 0.0170898 13.3344 0.131076 13.1315 0.333974C12.9286 0.536871 12.8146 0.812059 12.8146 1.099V5.51319C12.2184 5.59723 11.6347 5.75307 11.0759 5.97733L8.86452 2.16143C8.71653 1.92222 8.48119 1.75005 8.20841 1.68143C7.93562 1.6128 7.64682 1.65312 7.40325 1.79383C7.15969 1.93454 6.9805 2.16457 6.90368 2.43517C6.82686 2.70577 6.85844 2.99564 6.99174 3.24334L9.20533 7.06573C8.74444 7.43122 8.32731 7.84872 7.96221 8.30992L4.14307 6.09526C4.01991 6.01906 3.88271 5.96837 3.73959 5.94618C3.59648 5.924 3.45036 5.93077 3.30991 5.96611C3.16946 6.00144 3.03754 6.06461 2.92196 6.15187C2.80637 6.23914 2.70949 6.34872 2.63704 6.47412C2.5646 6.59953 2.51807 6.7382 2.50021 6.88192C2.48235 7.02564 2.49353 7.17148 2.53308 7.3108C2.57264 7.45012 2.63976 7.58008 2.73047 7.69298C2.82118 7.80587 2.93363 7.89941 3.06116 7.96804L6.87381 10.1795C6.6498 10.7382 6.49396 11.322 6.40967 11.9181H1.99548C1.70854 11.9181 1.43336 12.0321 1.23046 12.235C1.02756 12.4379 0.913574 12.7131 0.913574 13C0.913574 13.2869 1.02756 13.5621 1.23046 13.765C1.43336 13.9679 1.70854 14.0819 1.99548 14.0819H6.40967C6.49396 14.678 6.6498 15.2618 6.87381 15.8205L3.05792 18.032C2.93039 18.1006 2.81793 18.1941 2.72722 18.307C2.63651 18.4199 2.56939 18.5499 2.52984 18.6892C2.49028 18.8285 2.47911 18.9744 2.49696 19.1181C2.51482 19.2618 2.56135 19.4005 2.6338 19.5259C2.70624 19.6513 2.80313 19.7609 2.91871 19.8481C3.03429 19.9354 3.16622 19.9986 3.30667 20.0339C3.44712 20.0692 3.59323 20.076 3.73635 20.0538C3.87946 20.0316 4.01667 19.9809 4.13983 19.9047L7.95897 17.6901C8.32406 18.1513 8.7412 18.5688 9.20208 18.9343L6.99174 22.7545C6.85844 23.0022 6.82686 23.2921 6.90368 23.5627C6.9805 23.8333 7.15969 24.0633 7.40325 24.204C7.64682 24.3447 7.93562 24.385 8.20841 24.3164C8.48119 24.2478 8.71653 24.0756 8.86452 23.8364L11.0759 20.0205C11.6347 20.245 12.2184 20.4016 12.8146 20.4868V24.901C12.8146 25.1879 12.9286 25.4631 13.1315 25.666C13.3344 25.8689 13.6095 25.9829 13.8965 25.9829C14.1834 25.9829 14.4586 25.8689 14.6615 25.666C14.8644 25.4631 14.9784 25.1879 14.9784 24.901V20.4868C15.5744 20.4023 16.1582 20.2465 16.717 20.0227L18.9284 23.8386C19.0764 24.0778 19.3118 24.2499 19.5846 24.3186C19.8574 24.3872 20.1461 24.3469 20.3897 24.2062C20.6333 24.0655 20.8125 23.8354 20.8893 23.5648C20.9661 23.2942 20.9345 23.0044 20.8012 22.7567L18.5876 18.9364C19.0485 18.5709 19.4657 18.1534 19.8308 17.6922L23.6499 19.9069C23.7731 19.9831 23.9103 20.0338 24.0534 20.056C24.1965 20.0782 24.3426 20.0714 24.4831 20.0361C24.6235 20.0007 24.7554 19.9376 24.871 19.8503C24.9866 19.763 25.0835 19.6534 25.1559 19.528C25.2284 19.4026 25.2749 19.264 25.2928 19.1202C25.3106 18.9765 25.2994 18.8307 25.2599 18.6914C25.2203 18.552 25.1532 18.4221 25.0625 18.3092C24.9718 18.1963 24.8593 18.1028 24.7318 18.0341L20.9159 15.8227C21.1412 15.2634 21.2981 14.6789 21.3833 14.0819H25.7975C26.0844 14.0819 26.3596 13.9679 26.5625 13.765C26.7654 13.5621 26.8794 13.2869 26.8794 13C26.8794 12.7131 26.7654 12.4379 26.5625 12.235C26.3596 12.0321 26.0844 11.9181 25.7975 11.9181Z" fill="#6C2CFF"/>
</svg>
