<svg width="46" height="46" viewBox="0 0 46 46" fill="none" xmlns="http://www.w3.org/2000/svg">
<g clip-path="url(#clip0_3_4999)">
<path d="M19.1907 32.7195H14.1825C13.4433 32.7219 12.7109 32.5774 12.0279 32.2945C11.3449 32.0115 10.7249 31.5958 10.2038 31.0714L0.538174 21.4058C0.483799 22.047 0.440674 22.6901 0.440674 23.3445C0.448908 28.9832 2.57244 34.4135 6.39144 38.562C10.2104 42.7105 15.4469 45.2751 21.0657 45.7489V34.5945C21.0657 34.0972 20.8681 33.6203 20.5165 33.2687C20.1649 32.9171 19.688 32.7195 19.1907 32.7195Z" fill="#6C2CFF"/>
<path d="M38.7582 7.36597L35.4019 10.7222C34.5213 11.598 33.3308 12.0912 32.0888 12.0947H29.5032C29.2545 12.0947 29.0161 12.1935 28.8403 12.3693C28.6644 12.5451 28.5657 12.7836 28.5657 13.0322V14.9072C28.5657 16.1504 28.0718 17.3427 27.1927 18.2218C26.3137 19.1009 25.1214 19.5947 23.8782 19.5947C23.6295 19.5947 23.3911 19.6935 23.2153 19.8693C23.0394 20.0451 22.9407 20.2836 22.9407 20.5322V21.4697C22.9407 21.967 23.1382 22.4439 23.4898 22.7955C23.8415 23.1472 24.3184 23.3447 24.8157 23.3447H30.4407C31.9325 23.3447 33.3633 23.9373 34.4181 24.9922C35.473 26.0471 36.0657 27.4779 36.0657 28.9697V30.7735C36.0657 31.0216 36.1642 31.2596 36.3394 31.4353L41.2613 36.3591C44.3641 32.0197 45.8167 26.7156 45.3578 21.4008C44.899 16.086 42.5588 11.1094 38.7582 7.36597Z" fill="#6C2CFF"/>
<path d="M32.3156 30.7752V28.9714C32.3156 28.4741 32.118 27.9972 31.7664 27.6456C31.4148 27.294 30.9378 27.0964 30.4406 27.0964H24.8156C23.3237 27.0964 21.893 26.5038 20.8381 25.4489C19.7832 24.394 19.1906 22.9633 19.1906 21.4714V20.5339C19.1906 19.2907 19.6844 18.0984 20.5635 17.2193C21.4426 16.3403 22.6349 15.8464 23.8781 15.8464C24.1267 15.8464 24.3652 15.7476 24.541 15.5718C24.7168 15.396 24.8156 15.1575 24.8156 14.9089V13.0339C24.8156 11.7907 25.3094 10.5984 26.1885 9.71935C27.0676 8.84027 28.2599 8.34641 29.5031 8.34641H32.0887C32.3366 8.34494 32.5741 8.24671 32.7506 8.07266L35.8649 4.95828C32.9492 2.89892 29.5844 1.56449 26.0497 1.06571C22.5151 0.566927 18.9124 0.918172 15.5407 2.0903C12.1689 3.26244 9.12523 5.22166 6.66216 7.80545C4.1991 10.3892 2.38763 13.5231 1.37805 16.947L12.8531 28.422C13.0276 28.5966 13.2348 28.735 13.463 28.8293C13.6911 28.9235 13.9356 28.9718 14.1824 28.9714H19.1906C20.6824 28.9714 22.1131 29.564 23.168 30.6189C24.2229 31.6738 24.8156 33.1046 24.8156 34.5964V45.7508C30.1156 45.3146 35.0883 43.0093 38.8462 39.2464L33.6881 34.0883C32.8123 33.2076 32.3191 32.0171 32.3156 30.7752Z" fill="#6C2CFF"/>
</g>
<defs>
<clipPath id="clip0_3_4999">
<rect width="45" height="45" fill="white" transform="translate(0.440674 0.844727)"/>
</clipPath>
</defs>
</svg>
