<svg width="26" height="26" viewBox="0 0 26 26" fill="none" xmlns="http://www.w3.org/2000/svg">
<path d="M4.61099 11.9382H0C0.00168584 10.5308 0.561517 9.18155 1.5567 8.18637C2.55187 7.1912 3.90114 6.63136 5.30853 6.62968H11.6788V1.99639C11.679 1.70414 11.7529 1.41665 11.8936 1.16052C12.0343 0.904386 12.2374 0.687883 12.484 0.531033C12.7306 0.374183 13.0128 0.282051 13.3044 0.263157C13.5961 0.244264 13.8878 0.29922 14.1525 0.422942L17.55 2.0155C17.7036 2.11072 17.8304 2.24359 17.9184 2.40151C18.0063 2.55944 18.0524 2.7372 18.0524 2.91795C18.0524 3.09871 18.0063 3.27646 17.9184 3.43439C17.8304 3.59232 17.7036 3.72519 17.55 3.8204L13.8022 5.56797V6.62968H20.1724C21.5798 6.63136 22.9291 7.1912 23.9243 8.18637C24.9194 9.18155 25.4793 10.5308 25.481 11.9382H20.87C20.0405 11.9384 19.2436 11.615 18.6489 11.0368L15.744 7.874C14.9322 7.091 13.8465 6.65612 12.7186 6.66207C11.5907 6.66802 10.5097 7.11433 9.70612 7.90585L6.86287 11.005C6.26457 11.6007 5.45528 11.9361 4.61099 11.9382ZM12.7405 20.4319C12.4589 20.4319 12.1888 20.5437 11.9897 20.7428C11.7906 20.9419 11.6788 21.212 11.6788 21.4936V25.7404H13.8022V21.4936C13.8022 21.212 13.6903 20.9419 13.4912 20.7428C13.2921 20.5437 13.0221 20.4319 12.7405 20.4319ZM20.87 14.0616H25.481V22.5553C25.481 23.4 25.1454 24.2102 24.5481 24.8075C23.9507 25.4048 23.1406 25.7404 22.2958 25.7404H15.9256V21.4936C15.9256 20.6488 15.59 19.8387 14.9927 19.2414C14.3954 18.644 13.5852 18.3084 12.7405 18.3084C11.8957 18.3084 11.0856 18.644 10.4883 19.2414C9.89093 19.8387 9.55536 20.6488 9.55536 21.4936V25.7404H3.18512C2.34037 25.7404 1.53023 25.4048 0.9329 24.8075C0.335574 24.2102 0 23.4 0 22.5553L0 14.0616H4.61099C5.31571 14.0619 6.01341 13.9216 6.66329 13.6491C7.31318 13.3766 7.90222 12.9772 8.39598 12.4744L11.2392 9.37525C11.6407 8.99858 12.1689 8.7863 12.7194 8.7804C13.2699 8.7745 13.8025 8.97542 14.212 9.3434L17.119 12.5062C17.6104 13.0005 18.1949 13.3924 18.8388 13.6594C19.4826 13.9263 20.173 14.0631 20.87 14.0616ZM6.37024 22.5553C6.37024 22.2737 6.25838 22.0036 6.05927 21.8045C5.86016 21.6054 5.59011 21.4936 5.30853 21.4936H4.24683C3.96524 21.4936 3.69519 21.6054 3.49609 21.8045C3.29698 22.0036 3.18512 22.2737 3.18512 22.5553C3.18512 22.8369 3.29698 23.1069 3.49609 23.306C3.69519 23.5051 3.96524 23.617 4.24683 23.617H5.30853C5.59011 23.617 5.86016 23.5051 6.05927 23.306C6.25838 23.1069 6.37024 22.8369 6.37024 22.5553ZM6.37024 18.3084C6.37024 18.0269 6.25838 17.7568 6.05927 17.5577C5.86016 17.3586 5.59011 17.2467 5.30853 17.2467H4.24683C3.96524 17.2467 3.69519 17.3586 3.49609 17.5577C3.29698 17.7568 3.18512 18.0269 3.18512 18.3084C3.18512 18.59 3.29698 18.8601 3.49609 19.0592C3.69519 19.2583 3.96524 19.3702 4.24683 19.3702H5.30853C5.59011 19.3702 5.86016 19.2583 6.05927 19.0592C6.25838 18.8601 6.37024 18.59 6.37024 18.3084ZM14.8639 14.0616C14.8639 13.6417 14.7394 13.2311 14.506 12.8819C14.2727 12.5327 13.9411 12.2606 13.5531 12.0998C13.1651 11.9391 12.7381 11.8971 12.3262 11.979C11.9143 12.0609 11.536 12.2632 11.239 12.5601C10.942 12.8571 10.7398 13.2355 10.6579 13.6474C10.5759 14.0593 10.618 14.4862 10.7787 14.8742C10.9394 15.2622 11.2116 15.5939 11.5608 15.8272C11.91 16.0605 12.3205 16.185 12.7405 16.185C13.3036 16.185 13.8437 15.9613 14.242 15.5631C14.6402 15.1649 14.8639 14.6248 14.8639 14.0616ZM22.2958 22.5553C22.2958 22.2737 22.184 22.0036 21.9849 21.8045C21.7858 21.6054 21.5157 21.4936 21.2341 21.4936H20.1724C19.8908 21.4936 19.6208 21.6054 19.4217 21.8045C19.2226 22.0036 19.1107 22.2737 19.1107 22.5553C19.1107 22.8369 19.2226 23.1069 19.4217 23.306C19.6208 23.5051 19.8908 23.617 20.1724 23.617H21.2341C21.5157 23.617 21.7858 23.5051 21.9849 23.306C22.184 23.1069 22.2958 22.8369 22.2958 22.5553ZM21.2341 17.2467H20.1724C19.8908 17.2467 19.6208 17.3586 19.4217 17.5577C19.2226 17.7568 19.1107 18.0269 19.1107 18.3084C19.1107 18.59 19.2226 18.8601 19.4217 19.0592C19.6208 19.2583 19.8908 19.3702 20.1724 19.3702H21.2341C21.5157 19.3702 21.7858 19.2583 21.9849 19.0592C22.184 18.8601 22.2958 18.59 22.2958 18.3084C22.2958 18.0269 22.184 17.7568 21.9849 17.5577C21.7858 17.3586 21.5157 17.2467 21.2341 17.2467Z" fill="#6C2CFF"/>
</svg>
