<svg width="23" height="22" viewBox="0 0 23 22" fill="none" xmlns="http://www.w3.org/2000/svg">
<g clip-path="url(#clip0_11_5960)">
<path d="M4.79183 12.8333C5.3211 12.8333 5.75016 12.4229 5.75016 11.9167C5.75016 11.4104 5.3211 11 4.79183 11C4.26256 11 3.8335 11.4104 3.8335 11.9167C3.8335 12.4229 4.26256 12.8333 4.79183 12.8333Z" fill="#6C2CFF"/>
<path d="M0.958333 9.16683C1.48761 9.16683 1.91667 8.75642 1.91667 8.25016C1.91667 7.7439 1.48761 7.3335 0.958333 7.3335C0.42906 7.3335 0 7.7439 0 8.25016C0 8.75642 0.42906 9.16683 0.958333 9.16683Z" fill="#6C2CFF"/>
<path d="M4.79183 5.49983C5.3211 5.49983 5.75016 5.08943 5.75016 4.58317C5.75016 4.07691 5.3211 3.6665 4.79183 3.6665C4.26256 3.6665 3.8335 4.07691 3.8335 4.58317C3.8335 5.08943 4.26256 5.49983 4.79183 5.49983Z" fill="#6C2CFF"/>
<path d="M0.958333 1.83333C1.48761 1.83333 1.91667 1.42293 1.91667 0.916667C1.91667 0.410406 1.48761 0 0.958333 0C0.42906 0 0 0.410406 0 0.916667C0 1.42293 0.42906 1.83333 0.958333 1.83333Z" fill="#6C2CFF"/>
<path d="M22.0418 12.8333C22.5711 12.8333 23.0002 12.4229 23.0002 11.9167C23.0002 11.4104 22.5711 11 22.0418 11C21.5126 11 21.0835 11.4104 21.0835 11.9167C21.0835 12.4229 21.5126 12.8333 22.0418 12.8333Z" fill="#6C2CFF"/>
<path d="M18.2083 9.16683C18.7376 9.16683 19.1667 8.75642 19.1667 8.25016C19.1667 7.7439 18.7376 7.3335 18.2083 7.3335C17.6791 7.3335 17.25 7.7439 17.25 8.25016C17.25 8.75642 17.6791 9.16683 18.2083 9.16683Z" fill="#6C2CFF"/>
<path d="M22.0418 5.49983C22.5711 5.49983 23.0002 5.08943 23.0002 4.58317C23.0002 4.07691 22.5711 3.6665 22.0418 3.6665C21.5126 3.6665 21.0835 4.07691 21.0835 4.58317C21.0835 5.08943 21.5126 5.49983 22.0418 5.49983Z" fill="#6C2CFF"/>
<path d="M18.2083 1.83333C18.7376 1.83333 19.1667 1.42293 19.1667 0.916667C19.1667 0.410406 18.7376 0 18.2083 0C17.6791 0 17.25 0.410406 17.25 0.916667C17.25 1.42293 17.6791 1.83333 18.2083 1.83333Z" fill="#6C2CFF"/>
<path d="M13.4168 21.9998C13.9461 21.9998 14.3752 21.5894 14.3752 21.0832C14.3752 20.5769 13.9461 20.1665 13.4168 20.1665C12.8876 20.1665 12.4585 20.5769 12.4585 21.0832C12.4585 21.5894 12.8876 21.9998 13.4168 21.9998Z" fill="#6C2CFF"/>
<path d="M9.58333 18.3333C10.1126 18.3333 10.5417 17.9229 10.5417 17.4167C10.5417 16.9104 10.1126 16.5 9.58333 16.5C9.05406 16.5 8.625 16.9104 8.625 17.4167C8.625 17.9229 9.05406 18.3333 9.58333 18.3333Z" fill="#6C2CFF"/>
<path d="M13.4168 14.6668C13.9461 14.6668 14.3752 14.2564 14.3752 13.7502C14.3752 13.2439 13.9461 12.8335 13.4168 12.8335C12.8876 12.8335 12.4585 13.2439 12.4585 13.7502C12.4585 14.2564 12.8876 14.6668 13.4168 14.6668Z" fill="#6C2CFF"/>
<path d="M9.58333 10.9998C10.1126 10.9998 10.5417 10.5894 10.5417 10.0832C10.5417 9.57691 10.1126 9.1665 9.58333 9.1665C9.05406 9.1665 8.625 9.57691 8.625 10.0832C8.625 10.5894 9.05406 10.9998 9.58333 10.9998Z" fill="#6C2CFF"/>
<path d="M14.3748 2.75C13.8665 2.75 13.379 2.55685 13.0195 2.21303C12.6601 1.86921 12.4582 1.4029 12.4582 0.916667C12.4582 0.673552 12.3572 0.440394 12.1775 0.268485C11.9978 0.0965771 11.754 0 11.4998 0C11.2457 0 11.0019 0.0965771 10.8222 0.268485C10.6425 0.440394 10.5415 0.673552 10.5415 0.916667C10.5415 1.4029 10.3396 1.86921 9.98012 2.21303C9.62068 2.55685 9.13317 2.75 8.62484 2.75C8.37067 2.75 8.12691 2.84658 7.94719 3.01849C7.76747 3.19039 7.6665 3.42355 7.6665 3.66667C7.6665 3.90978 7.76747 4.14294 7.94719 4.31485C8.12691 4.48676 8.37067 4.58333 8.62484 4.58333C9.13317 4.58333 9.62068 4.77649 9.98012 5.1203C10.3396 5.46412 10.5415 5.93044 10.5415 6.41667C10.5415 6.65978 10.6425 6.89294 10.8222 7.06485C11.0019 7.23676 11.2457 7.33333 11.4998 7.33333C11.754 7.33333 11.9978 7.23676 12.1775 7.06485C12.3572 6.89294 12.4582 6.65978 12.4582 6.41667C12.4582 5.93044 12.6601 5.46412 13.0195 5.1203C13.379 4.77649 13.8665 4.58333 14.3748 4.58333C14.629 4.58333 14.8727 4.48676 15.0525 4.31485C15.2322 4.14294 15.3332 3.90978 15.3332 3.66667C15.3332 3.42355 15.2322 3.19039 15.0525 3.01849C14.8727 2.84658 14.629 2.75 14.3748 2.75Z" fill="#6C2CFF"/>
<path d="M6.70833 17.4165C6.2 17.4165 5.71249 17.2233 5.35304 16.8795C4.9936 16.5357 4.79167 16.0694 4.79167 15.5832C4.79167 15.3401 4.6907 15.1069 4.51098 14.935C4.33125 14.7631 4.0875 14.6665 3.83333 14.6665C3.57917 14.6665 3.33541 14.7631 3.15569 14.935C2.97597 15.1069 2.875 15.3401 2.875 15.5832C2.875 16.0694 2.67307 16.5357 2.31362 16.8795C1.95418 17.2233 1.46666 17.4165 0.958333 17.4165C0.704167 17.4165 0.460412 17.5131 0.280689 17.685C0.100967 17.8569 0 18.09 0 18.3332C0 18.5763 0.100967 18.8094 0.280689 18.9813C0.460412 19.1533 0.704167 19.2498 0.958333 19.2498C1.46666 19.2498 1.95418 19.443 2.31362 19.7868C2.67307 20.1306 2.875 20.5969 2.875 21.0832C2.875 21.3263 2.97597 21.5594 3.15569 21.7313C3.33541 21.9032 3.57917 21.9998 3.83333 21.9998C4.0875 21.9998 4.33125 21.9032 4.51098 21.7313C4.6907 21.5594 4.79167 21.3263 4.79167 21.0832C4.79167 20.5969 4.9936 20.1306 5.35304 19.7868C5.71249 19.443 6.2 19.2498 6.70833 19.2498C6.9625 19.2498 7.20625 19.1533 7.38598 18.9813C7.5657 18.8094 7.66667 18.5763 7.66667 18.3332C7.66667 18.09 7.5657 17.8569 7.38598 17.685C7.20625 17.5131 6.9625 17.4165 6.70833 17.4165Z" fill="#6C2CFF"/>
<path d="M22.0418 17.4165C21.5335 17.4165 21.046 17.2233 20.6865 16.8795C20.3271 16.5357 20.1252 16.0694 20.1252 15.5832C20.1252 15.3401 20.0242 15.1069 19.8445 14.935C19.6647 14.7631 19.421 14.6665 19.1668 14.6665C18.9127 14.6665 18.6689 14.7631 18.4892 14.935C18.3095 15.1069 18.2085 15.3401 18.2085 15.5832C18.2085 16.0694 18.0066 16.5357 17.6471 16.8795C17.2877 17.2233 16.8002 17.4165 16.2918 17.4165C16.0377 17.4165 15.7939 17.5131 15.6142 17.685C15.4345 17.8569 15.3335 18.09 15.3335 18.3332C15.3335 18.5763 15.4345 18.8094 15.6142 18.9813C15.7939 19.1533 16.0377 19.2498 16.2918 19.2498C16.8002 19.2498 17.2877 19.443 17.6471 19.7868C18.0066 20.1306 18.2085 20.5969 18.2085 21.0832C18.2085 21.3263 18.3095 21.5594 18.4892 21.7313C18.6689 21.9032 18.9127 21.9998 19.1668 21.9998C19.421 21.9998 19.6647 21.9032 19.8445 21.7313C20.0242 21.5594 20.1252 21.3263 20.1252 21.0832C20.1252 20.5969 20.3271 20.1306 20.6865 19.7868C21.046 19.443 21.5335 19.2498 22.0418 19.2498C22.296 19.2498 22.5397 19.1533 22.7195 18.9813C22.8992 18.8094 23.0001 18.5763 23.0001 18.3332C23.0001 18.09 22.8992 17.8569 22.7195 17.685C22.5397 17.5131 22.296 17.4165 22.0418 17.4165Z" fill="#6C2CFF"/>
</g>
<defs>
<clipPath id="clip0_11_5960">
<rect width="23" height="22" fill="white"/>
</clipPath>
</defs>
</svg>
