<svg width="19" height="20" viewBox="0 0 19 20" fill="none" xmlns="http://www.w3.org/2000/svg">
<path d="M18.2083 13.1667C18.0858 13.1667 17.9649 13.1382 17.8553 13.0836L16.2719 12.2919C16.084 12.198 15.9411 12.0334 15.8746 11.8341C15.8081 11.6349 15.8234 11.4174 15.9173 11.2295C16.0111 11.0415 16.1758 10.8986 16.375 10.8321C16.5743 10.7656 16.7918 10.7809 16.9797 10.8748L18.563 11.6665C18.7228 11.7461 18.851 11.8774 18.9268 12.0391C19.0025 12.2008 19.0214 12.3834 18.9803 12.5571C18.9392 12.7309 18.8406 12.8857 18.7005 12.9963C18.5603 13.107 18.3869 13.167 18.2083 13.1667ZM16.9789 5.9625L18.5622 5.17084C18.7501 5.07698 18.8931 4.91232 18.9596 4.71308C19.0261 4.51384 19.0107 4.29634 18.9169 4.10842C18.823 3.9205 18.6584 3.77757 18.4591 3.71105C18.2599 3.64454 18.0424 3.6599 17.8545 3.75375L16.2711 4.54542C16.0832 4.63927 15.9403 4.80393 15.8738 5.00317C15.8073 5.20242 15.8226 5.41992 15.9165 5.60784C16.0103 5.79575 16.175 5.93869 16.3742 6.0052C16.5735 6.07172 16.791 6.05636 16.9789 5.9625ZM19 8.41667C19 8.20671 18.9166 8.00535 18.7681 7.85688C18.6197 7.70841 18.4183 7.62501 18.2083 7.62501H16.625C16.4151 7.62501 16.2137 7.70841 16.0652 7.85688C15.9168 8.00535 15.8333 8.20671 15.8333 8.41667C15.8333 8.62664 15.9168 8.828 16.0652 8.97647C16.2137 9.12493 16.4151 9.20834 16.625 9.20834H18.2083C18.4183 9.20834 18.6197 9.12493 18.7681 8.97647C18.9166 8.828 19 8.62664 19 8.41667ZM14.25 15.5417V1.29167C14.25 1.0817 14.1666 0.88034 14.0181 0.731874C13.8697 0.583408 13.6683 0.5 13.4583 0.5C13.2484 0.5 13.047 0.583408 12.8986 0.731874C12.7501 0.88034 12.6667 1.0817 12.6667 1.29167C12.6667 3.62629 10.6218 4.45834 8.70834 4.45834H3.16667C2.32682 4.45834 1.52136 4.79197 0.927496 5.38583C0.33363 5.9797 0 6.78515 0 7.62501L0 9.20834C0 10.0482 0.33363 10.8536 0.927496 11.4475C1.52136 12.0414 2.32682 12.375 3.16667 12.375H8.70834C10.6218 12.375 12.6667 13.2071 12.6667 15.5417C12.6667 15.7516 12.7501 15.953 12.8986 16.1015C13.047 16.2499 13.2484 16.3333 13.4583 16.3333C13.6683 16.3333 13.8697 16.2499 14.0181 16.1015C14.1666 15.953 14.25 15.7516 14.25 15.5417ZM6.48059 13.9583H3.16667C2.79808 13.9569 2.43092 13.9125 2.07259 13.8261L4.05175 18.2452C4.21797 18.6187 4.4889 18.936 4.83173 19.1587C5.17457 19.3814 5.57461 19.5 5.98342 19.5C6.30868 19.4996 6.62866 19.4178 6.9142 19.262C7.19973 19.1062 7.44175 18.8815 7.61819 18.6082C7.79464 18.335 7.89989 18.022 7.92437 17.6976C7.94885 17.3733 7.89177 17.048 7.75834 16.7513L6.48059 13.9583Z" fill="white"/>
</svg>
