<svg width="43" height="42" viewBox="0 0 43 42" fill="none" xmlns="http://www.w3.org/2000/svg">
<path d="M40.3388 27.3745C40.074 27.3745 39.8128 27.313 39.5758 27.1949L36.1539 25.484C35.7478 25.2811 35.4389 24.9253 35.2952 24.4947C35.1514 24.0641 35.1846 23.594 35.3875 23.1879C35.5903 22.7818 35.9461 22.4729 36.3767 22.3291C36.8073 22.1854 37.2774 22.2186 37.6835 22.4214L41.1053 24.1323C41.4507 24.3045 41.7277 24.5883 41.8914 24.9377C42.0552 25.2872 42.0959 25.6817 42.0071 26.0572C41.9184 26.4328 41.7052 26.7673 41.4024 27.0064C41.0995 27.2455 40.7247 27.3752 40.3388 27.3745ZM37.6818 11.8053L41.1036 10.0943C41.5097 9.89152 41.8186 9.53566 41.9624 9.10507C42.1061 8.67448 42.0729 8.20443 41.8701 7.79831C41.6673 7.3922 41.3114 7.08329 40.8808 6.93954C40.4502 6.7958 39.9802 6.82899 39.5741 7.03183L36.1522 8.74273C35.7461 8.94556 35.4372 9.30142 35.2935 9.73201C35.1497 10.1626 35.1829 10.6327 35.3857 11.0388C35.5886 11.4449 35.9444 11.7538 36.375 11.8975C36.8056 12.0413 37.2757 12.0081 37.6818 11.8053ZM42.0497 17.1091C42.0497 16.6553 41.8695 16.2201 41.5486 15.8993C41.2278 15.5784 40.7926 15.3982 40.3388 15.3982H36.917C36.4633 15.3982 36.0281 15.5784 35.7072 15.8993C35.3864 16.2201 35.2061 16.6553 35.2061 17.1091C35.2061 17.5628 35.3864 17.998 35.7072 18.3189C36.0281 18.6397 36.4633 18.82 36.917 18.82H40.3388C40.7926 18.82 41.2278 18.6397 41.5486 18.3189C41.8695 17.998 42.0497 17.5628 42.0497 17.1091ZM31.7843 32.5072V1.71091C31.7843 1.25715 31.604 0.82197 31.2832 0.501113C30.9623 0.180256 30.5271 0 30.0734 0C29.6196 0 29.1844 0.180256 28.8636 0.501113C28.5427 0.82197 28.3625 1.25715 28.3625 1.71091C28.3625 6.75637 23.9432 8.55453 19.8079 8.55453H7.8316C6.01656 8.55453 4.27586 9.27555 2.99243 10.559C1.709 11.8424 0.987976 13.5831 0.987976 15.3982L0.987976 18.82C0.987976 20.635 1.709 22.3757 2.99243 23.6591C4.27586 24.9426 6.01656 25.6636 7.8316 25.6636H19.8079C23.9432 25.6636 28.3625 27.4618 28.3625 32.5072C28.3625 32.961 28.5427 33.3962 28.8636 33.717C29.1844 34.0379 29.6196 34.2181 30.0734 34.2181C30.5271 34.2181 30.9623 34.0379 31.2832 33.717C31.604 33.3962 31.7843 32.961 31.7843 32.5072ZM14.9935 29.0854H7.8316C7.03503 29.0822 6.24153 28.9863 5.46713 28.7997L9.7444 38.35C10.1036 39.1572 10.6891 39.8429 11.43 40.3242C12.171 40.8055 13.0355 41.0617 13.919 41.0618C14.6219 41.0608 15.3135 40.884 15.9305 40.5474C16.5476 40.2107 17.0707 39.725 17.452 39.1345C17.8333 38.544 18.0608 37.8675 18.1137 37.1665C18.1666 36.4656 18.0432 35.7625 17.7549 35.1215L14.9935 29.0854Z" fill="white"/>
</svg>
