<svg width="23" height="23" viewBox="0 0 23 23" fill="none" xmlns="http://www.w3.org/2000/svg">
<g clip-path="url(#clip0_11_5642)">
<path d="M21.6628 19.1473H14.17C14.0332 18.7644 13.8131 18.4166 13.5256 18.1291C13.2381 17.8416 12.8903 17.6215 12.5074 17.4847V13.6724C13.7379 13.6724 14.8146 13.6614 15.3456 13.6513C15.6738 13.6449 16.0006 13.6047 16.3206 13.5314C17.1452 13.3394 17.8996 12.9203 18.4983 12.3216C19.097 11.7229 19.5161 10.9686 19.7081 10.1439C19.9849 8.9843 19.7995 7.76246 19.1911 6.73714C18.5828 5.71183 17.5992 4.96354 16.4488 4.65073L16.2877 4.61136C16.013 4.55002 15.8738 4.5198 15.7493 4.21951C15.3065 3.15099 14.5377 2.24951 13.5525 1.64355C12.5673 1.03759 11.416 0.758069 10.2626 0.844824C9.10923 0.931578 8.01266 1.38018 7.12919 2.1267C6.24572 2.87322 5.62043 3.87956 5.34244 5.00229C5.14446 5.8228 5.12696 6.67651 5.29117 7.50445C4.68168 7.76661 4.1686 8.2115 3.82274 8.7777C3.47689 9.34391 3.31532 10.0035 3.36033 10.6655C3.40534 11.3274 3.65472 11.9591 4.07405 12.4732C4.49337 12.9874 5.06196 13.3588 5.70133 13.536C5.95049 13.6045 6.20669 13.6441 6.46489 13.6541C7.06273 13.6706 8.79858 13.6779 10.604 13.6779H10.6763V17.4874C10.2937 17.6239 9.94611 17.8436 9.65861 18.1306C9.37111 18.4177 9.15086 18.7649 9.01374 19.1473H1.521C1.27819 19.1473 1.04532 19.2438 0.873623 19.4154C0.701927 19.5871 0.605469 19.82 0.605469 20.0628C0.605469 20.3056 0.701927 20.5385 0.873623 20.7102C1.04532 20.8819 1.27819 20.9784 1.521 20.9784H9.01374C9.20018 21.5135 9.54855 21.9774 10.0105 22.3057C10.4725 22.6339 11.0252 22.8103 11.5919 22.8103C12.1586 22.8103 12.7113 22.6339 13.1732 22.3057C13.6352 21.9774 13.9836 21.5135 14.17 20.9784H21.6628C21.9056 20.9784 22.1384 20.8819 22.3101 20.7102C22.4818 20.5385 22.5783 20.3056 22.5783 20.0628C22.5783 19.82 22.4818 19.5871 22.3101 19.4154C22.1384 19.2438 21.9056 19.1473 21.6628 19.1473Z" fill="white"/>
</g>
<defs>
<clipPath id="clip0_11_5642">
<rect width="21.9728" height="21.9728" fill="white" transform="translate(0.605469 0.836792)"/>
</clipPath>
</defs>
</svg>
