<svg width="35" height="35" viewBox="0 0 35 35" fill="none" xmlns="http://www.w3.org/2000/svg">
<g clip-path="url(#clip0_11_5049)">
<path d="M32.8346 29.0439H21.2406C21.029 28.4514 20.6884 27.9133 20.2435 27.4684C19.7986 27.0235 19.2605 26.6829 18.6679 26.4712V20.5722C20.5719 20.5722 22.2379 20.5552 23.0596 20.5397C23.5676 20.5297 24.0731 20.4675 24.5684 20.3541C25.8444 20.057 27.0117 19.4085 27.9381 18.4821C28.8645 17.5557 29.5129 16.3884 29.81 15.1124C30.2383 13.318 29.9514 11.4274 29.0101 9.84087C28.0687 8.25433 26.5469 7.09645 24.7667 6.61241L24.5174 6.5515C24.0924 6.45658 23.877 6.40983 23.6844 5.94516C22.9992 4.29178 21.8096 2.89686 20.2851 1.95922C18.7606 1.02157 16.9791 0.58905 15.1944 0.723291C13.4097 0.857532 11.7129 1.55169 10.3459 2.70682C8.97882 3.86196 8.01127 5.41914 7.58111 7.15641C7.27476 8.42604 7.24769 9.74705 7.50178 11.0282C6.55868 11.4338 5.76475 12.1222 5.22958 12.9984C4.69442 13.8745 4.44441 14.8951 4.51406 15.9194C4.58371 16.9437 4.9696 17.9211 5.61844 18.7167C6.26729 19.5123 7.14711 20.0869 8.13645 20.3612C8.52198 20.4671 8.91842 20.5285 9.31795 20.5439C10.243 20.5694 12.929 20.5807 15.7227 20.5807H15.8346V26.4755C15.2425 26.6867 14.7047 27.0266 14.2598 27.4708C13.8149 27.9149 13.4741 28.4522 13.2619 29.0439H1.66795C1.29223 29.0439 0.93189 29.1932 0.666214 29.4588C0.400537 29.7245 0.251282 30.0849 0.251282 30.4606C0.251282 30.8363 0.400537 31.1966 0.666214 31.4623C0.93189 31.728 1.29223 31.8772 1.66795 31.8772H13.2619C13.5504 32.7054 14.0895 33.4232 14.8043 33.9311C15.5192 34.439 16.3744 34.7119 17.2513 34.7119C18.1282 34.7119 18.9834 34.439 19.6982 33.9311C20.4131 33.4232 20.9521 32.7054 21.2406 31.8772H32.8346C33.2103 31.8772 33.5707 31.728 33.8363 31.4623C34.102 31.1966 34.2513 30.8363 34.2513 30.4606C34.2513 30.0849 34.102 29.7245 33.8363 29.4588C33.5707 29.1932 33.2103 29.0439 32.8346 29.0439Z" fill="white"/>
</g>
<defs>
<clipPath id="clip0_11_5049">
<rect width="34" height="34" fill="white" transform="translate(0.251282 0.710938)"/>
</clipPath>
</defs>
</svg>
