<svg width="32" height="31" viewBox="0 0 32 31" fill="none" xmlns="http://www.w3.org/2000/svg">
<path d="M0.748671 25.9266V5.50005C0.746674 4.64113 0.964804 3.79603 1.38225 3.04538C1.7997 2.29472 2.40254 1.66356 3.13325 1.21211C3.86395 0.760659 4.69815 0.50398 5.55626 0.466564C6.41436 0.429148 7.26774 0.612243 8.03497 0.998379L28.4692 11.2129C29.2564 11.6023 29.9272 12.1923 30.4138 12.9235C30.9005 13.6547 31.1858 14.5012 31.2411 15.3778C31.304 16.3668 31.0748 17.3526 30.582 18.2124C30.0891 19.0722 29.3544 19.7682 28.4692 20.2137L8.03497 30.4283C7.26751 30.8122 6.41464 30.9935 5.55738 30.9551C4.70012 30.9166 3.86691 30.6597 3.13688 30.2087C2.40684 29.7576 1.80422 29.1275 1.38624 28.378C0.968256 27.6286 0.748785 26.7847 0.748671 25.9266Z" fill="white"/>
</svg>
