<svg width="21" height="21" viewBox="0 0 21 21" fill="none" xmlns="http://www.w3.org/2000/svg">
<path d="M0.60527 17.3809V4.18009C0.603979 3.62501 0.744949 3.07886 1.01473 2.59374C1.28451 2.10862 1.6741 1.70073 2.14632 1.40897C2.61855 1.11722 3.15766 0.951337 3.71222 0.927156C4.26678 0.902976 4.81828 1.0213 5.31411 1.27085L18.5199 7.8721C19.0287 8.12374 19.4622 8.50504 19.7767 8.97758C20.0912 9.45011 20.2756 9.99719 20.3113 10.5637C20.352 11.2029 20.2038 11.8399 19.8853 12.3956C19.5668 12.9512 19.092 13.401 18.5199 13.6889L5.31411 20.2902C4.81813 20.5383 4.26696 20.6555 3.71295 20.6306C3.15893 20.6058 2.62046 20.4398 2.14867 20.1483C1.67688 19.8568 1.28743 19.4495 1.01731 18.9652C0.747181 18.4809 0.605345 17.9355 0.60527 17.3809Z" fill="white"/>
</svg>
